<?xml version="1.0" encoding="UTF-8" standalone="no"?>
<svg width="207px" height="49px" viewBox="0 0 207 49" version="1.1" xmlns="http://www.w3.org/2000/svg" xmlns:xlink="http://www.w3.org/1999/xlink">
    <!-- Generator: Sketch 3.8.3 (29802) - http://www.bohemiancoding.com/sketch -->
    <title>AKP logo</title>
    <desc>Created with Sketch.</desc>
    <defs>
        <linearGradient x1="26.8948484%" y1="6.28885538%" x2="71.4031094%" y2="95.8993067%" id="linearGradient-1">
            <stop stop-color="#F97844" offset="0%"></stop>
            <stop stop-color="#F35026" offset="100%"></stop>
        </linearGradient>
    </defs>
    <g id="Page-1" stroke="none" stroke-width="1" fill="none" fill-rule="evenodd">
        <g id="contact---1280px" transform="translate(-512.000000, -638.000000)">
            <g id="2.-Blok---Auto-info---645px-Copy" transform="translate(140.000000, 256.000000)">
                <g id="AKP-Adres" transform="translate(340.000000, 0.000000)">
                    <g id="AKP-logo" transform="translate(32.000000, 382.000000)">
                        <g id="Imported-Layers-+-Imported-Layers-Copy-3-+-Shape-Copy">
                            <g id="Imported-Layers" transform="translate(0.240105, 1.327703)">
                                <path d="M46.441492,23.6845881 C46.441492,36.6764918 36.0708773,47.2082289 23.2777335,47.2082289 C10.484776,47.2082289 0.113975078,36.6764918 0.113975078,23.6845881 C0.113975078,10.6928735 10.484776,0.161136372 23.2777335,0.161136372 C36.0708773,0.161136372 46.441492,10.6928735 46.441492,23.6845881" id="Fill-1" fill="url(#linearGradient-1)"></path>
                                <path d="M21.2030891,17.1536477 L24.1476315,24.9854049 C26.124317,24.0641664 28.2451473,22.8961168 30.4879608,21.4222485 L24.9700399,7.14522552 L22.6985464,7.14522552 L14.7836105,28.04397 C15.5352501,27.9390044 16.3498366,27.7939438 17.2234593,27.5963059 L21.2030891,17.1536477" id="Fill-2" fill="#FFFFFF"></path>
                                <path d="M41.0658537,14.8809062 C40.8004706,14.2028852 40.0803045,14.9866283 40.0803045,14.9866283 C36.8169299,18.0588105 33.7101778,20.4794495 30.8064206,22.3881211 C28.5637933,23.8621785 26.4427767,25.0302281 24.4662776,25.9514667 C21.6232326,27.2768701 19.0777892,28.09598 16.8988538,28.5886563 C16.0252312,28.7862942 15.2106446,28.9313548 14.459005,29.0363204 C10.6413986,29.5698482 8.44942692,29.0629873 8.44942692,29.0629873 L5.40245593,35.4195524 C14.2256541,37.3365457 21.267526,35.329717 26.6856256,31.9345056 L28.2985964,36.2008369 L36.1131524,36.2008369 L32.6281595,27.1458049 C38.3991721,21.3431934 41.0658537,14.8809062 41.0658537,14.8809062" id="Fill-3" fill="#FFFFFF"></path>
                            </g>
                            <g id="Imported-Layers-Copy-3-+-Shape-Copy" transform="translate(30.503095, 0.192940)">
                                <polygon id="Imported-Layers-Copy-3" fill="#091070" points="12.9261096 6.80995938 14.1808287 5.58455489 12.5254277 5.04369825 13.3468829 3.4840841 11.6083213 3.49006786 11.9159795 1.74879684 10.2641206 2.30123842 10.0280766 0.548061962 8.6251188 1.59280039 7.86789381 -4.4408921e-15 6.85153838 1.43485646 5.64767537 0.158076697 5.1159944 1.84262997 3.58350358 1.00663588 3.58938328 2.77596808 1.87820762 2.46290867 2.42099844 4.14381301 0.698541971 4.3841813 1.72534169 5.81211635 0.159924957 6.58221585 1.57004382 7.61751208 0.315382175 8.8423011 1.97076893 9.3839637 1.14909759 10.9426254 2.88793284 10.9369786 2.58013069 12.6784841 4.2317159 12.1257055 4.46786072 13.878457 5.87090493 12.8340996 6.62794274 14.426944 7.64504689 12.9919116 8.84872272 14.2687353 9.38082127 12.5842846 10.9123762 13.4204986 10.9068276 11.6508879 12.6177729 11.9638008 12.0746077 10.2829844 13.7971506 10.0429971 12.7707685 8.61516461 14.3360556 7.84449363"></polygon>
                                <path d="M8.62741413,4.86919198 C8.10276158,4.66849028 7.64511138,4.58945978 7.24560052,4.68875187 C6.55462152,4.86048375 6.22800585,5.53639017 6.18567307,6.43670617 L8.55978795,5.84665756 L8.4399132,6.76604521 L6.25981619,7.30787376 L6.34014013,7.73270786 L8.41325368,7.21746835 L8.26198256,7.99652674 L6.56949004,8.41716893 C7.01457036,9.49281096 7.60831208,9.91855802 8.36778874,9.72980213 C8.85451054,9.60883515 9.30551089,9.27274606 9.72626119,8.70456109 L10.0566733,10.2929347 C9.66974992,10.6867642 9.20338374,10.9486025 8.64851736,11.0865058 C7.83078238,11.2897408 7.10528274,11.1565722 6.4858447,10.7037817 C5.91592424,10.2937336 5.48607091,9.72436277 5.13845382,8.77283029 L4.38868687,8.95917298 L4.53978146,8.18015846 L4.92905297,8.0834112 C4.86869103,7.80194837 4.83848968,7.66112193 4.84855248,7.65862098 L4.13762442,7.83531088 L4.25855841,6.91565997 L4.75446031,6.79241141 C4.7295312,5.90881229 4.91348193,5.19109395 5.29446512,4.57794347 C5.69588237,3.91527473 6.28531421,3.50674671 7.05397098,3.31570926 C7.60848427,3.17789377 8.24176512,3.21487549 8.93891407,3.40573545 L8.62741413,4.86919198 L8.62741413,4.86919198 Z" id="Path" fill="#FFFFFF"></path>
                            </g>
                        </g>
                        <text id="Auto-KredietPlan" font-family="MyriadPro-Semibold, Myriad Pro" font-size="22.3379664" font-weight="500">
                            <tspan x="50.7837398" y="33.3174222" fill="#060D5D">Auto</tspan>
                            <tspan x="98.1402286" y="33.3174222" letter-spacing="-2" fill="#060D5D"> </tspan>
                            <tspan x="100.764188" y="33.3174222" font-family="MyriadPro-Regular, Myriad Pro" font-weight="normal" fill="#F35026">KredietPlan</tspan>
                        </text>
                    </g>
                </g>
            </g>
        </g>
    </g>
</svg>