<?xml version="1.0" encoding="UTF-8" standalone="no"?>
<svg width="244px" height="40px" viewBox="0 0 244 40" version="1.1" xmlns="http://www.w3.org/2000/svg" xmlns:xlink="http://www.w3.org/1999/xlink">
    <!-- Generator: Sketch 3.8.3 (29802) - http://www.bohemiancoding.com/sketch -->
    <title>AKP logo</title>
    <desc>Created with Sketch.</desc>
    <defs>
        <linearGradient x1="26.8948484%" y1="6.28885538%" x2="71.4031094%" y2="95.8993067%" id="linearGradient-1">
            <stop stop-color="#F97844" offset="0%"></stop>
            <stop stop-color="#F35026" offset="100%"></stop>
        </linearGradient>
    </defs>
    <g id="Page-1" stroke="none" stroke-width="1" fill="none" fill-rule="evenodd">
        <g id="homepage-v1---1680px-wide---design-1440px" transform="translate(-203.000000, -1572.000000)">
            <g id="2.-Blok---Financiering-/-zoekmodule--760px" transform="translate(120.000000, 939.000000)">
                <g id="Finacierings_module" transform="translate(50.000000, 216.000000)">
                    <g id="AKP-logo" transform="translate(33.000000, 417.000000)">
                        <text id="Auto-KredietPlan" font-family="MyriadPro-Semibold, Myriad Pro" font-size="28" font-weight="500">
                            <tspan x="47.8705882" y="29.6545894" fill="#060D5D">Auto</tspan>
                            <tspan x="107.230588" y="29.6545894" font-family="MyriadPro-Regular, Myriad Pro" font-weight="normal" letter-spacing="-2" fill="#EE6113"> </tspan>
                            <tspan x="111.166588" y="29.6545894" font-family="MyriadPro-Regular, Myriad Pro" font-weight="normal" fill="#F35026">KredietPlan</tspan>
                        </text>
                        <g id="Imported-Layers-+-Imported-Layers-Copy-3-+-Shape-Copy">
                            <g id="Imported-Layers" transform="translate(0.201655, 1.090422)">
                                <path d="M39.0044538,19.4517792 C39.0044538,30.121825 30.2945665,38.7713749 19.5500886,38.7713749 C8.80576706,38.7713749 0.09572336,30.121825 0.09572336,19.4517792 C0.09572336,8.78188859 8.80576706,0.132338765 19.5500886,0.132338765 C30.2945665,0.132338765 39.0044538,8.78188859 39.0044538,19.4517792" id="Fill-1" fill="url(#linearGradient-1)"></path>
                                <path d="M17.8076732,14.0880207 L20.280683,20.5201196 C21.9408264,19.7635208 23.7220317,18.8042201 25.605686,17.5937553 L20.9713928,5.86826118 L19.0636512,5.86826118 L12.4161957,23.0320709 C13.0474693,22.9458643 13.7316098,22.8267283 14.4653325,22.6644114 L17.8076732,14.0880207" id="Fill-2" fill="#FFFFFF"></path>
                                <path d="M34.4896584,12.2214539 C34.2667731,11.6646059 33.6619329,12.3082818 33.6619329,12.3082818 C30.9211478,14.8314166 28.3119042,16.8194493 25.8731483,18.3870113 C23.9896504,19.5976314 22.2082887,20.5569321 20.5483018,21.3135308 C18.1605357,22.4020638 16.022714,23.0747858 14.1927086,23.4794132 C13.4589859,23.6417301 12.7748455,23.760866 12.1435718,23.8470726 C8.93730848,24.2852506 7.09635432,23.8689737 7.09635432,23.8689737 L4.53731854,29.0895206 C11.9475892,30.6639169 17.8617913,29.0157401 22.4122483,26.2273064 L23.7669216,29.7311772 L30.3300717,29.7311772 L27.4031579,22.294422 C32.2500133,17.5288286 34.4896584,12.2214539 34.4896584,12.2214539" id="Fill-3" fill="#FFFFFF"></path>
                            </g>
                            <g id="Imported-Layers-Copy-3-+-Shape-Copy" transform="translate(25.618397, 0.158458)">
                                <polygon id="Imported-Layers-Copy-3" fill="#091070" points="10.8561509 5.59291238 11.9099421 4.58650698 10.5196333 4.14230993 11.2095425 2.86142339 9.74939029 2.86633776 10.0077808 1.4362593 8.62044699 1.88997087 8.4222025 0.450114657 7.24391128 1.30814188 6.60794664 4.4408921e-15 5.75434813 1.17842501 4.74326908 0.129825901 4.29673033 1.51332297 3.00964922 0.826734196 3.01458735 2.27985886 1.57743559 2.0227481 2.03330509 3.40324836 0.586678999 3.60065905 1.44904928 4.77339962 0.134314927 5.40587021 1.31862046 6.2561427 0.264877569 7.26204263 1.65517434 7.70690159 0.965083637 8.98700588 2.42546564 8.9823683 2.16695425 10.4126393 3.55405824 9.95865098 3.75238735 11.3981582 4.93075115 10.5404439 5.56655859 11.8486218 6.42078593 10.6700524 7.43170777 11.7186876 7.87859722 10.3352747 9.16489231 11.0220441 9.16023229 9.56869075 10.5971905 9.82568118 10.1410066 8.44525315 11.5877053 8.24815536 10.7256857 7.07549901 12.0403112 6.44255907"></polygon>
                                <path d="M7.24583904,3.99899068 C6.80520319,3.83415754 6.42084009,3.76925103 6.08530602,3.85079806 C5.50497888,3.99183875 5.23066671,4.54695005 5.19511302,5.2863654 L7.18904237,4.80176777 L7.0883641,5.55684637 L5.25738302,6.00184162 L5.32484406,6.35075117 L7.06597378,5.92759308 L6.93892688,6.56742147 L5.51746639,6.91288827 C5.89127252,7.79629613 6.38993375,8.14595548 7.02778949,7.99093325 C7.43656873,7.89158497 7.81534688,7.61556029 8.16871915,7.14891893 L8.44621977,8.45342513 C8.12125747,8.77687116 7.72957415,8.99191481 7.26356285,9.10517257 C6.57677814,9.27208633 5.96745842,9.16271706 5.44721582,8.79084735 C4.96856117,8.45408127 4.6075436,7.98646598 4.31559315,7.20498735 L3.68589223,7.35802766 L3.81279086,6.71823531 L4.13972529,6.6387783 C4.08902958,6.40761731 4.06366461,6.29195878 4.07211597,6.28990479 L3.47503436,6.43501742 L3.57660225,5.67972261 L3.99309151,5.57850051 C3.9721545,4.85281447 4.12664777,4.2633637 4.44662114,3.75979287 C4.78375632,3.21555347 5.27879785,2.88003584 5.92436361,2.72313979 C6.39007837,2.6099541 6.92194702,2.64032661 7.50745607,2.79707688 L7.24583904,3.99899068 L7.24583904,3.99899068 Z" id="Path" fill="#FFFFFF"></path>
                            </g>
                        </g>
                    </g>
                </g>
            </g>
        </g>
    </g>
</svg>