<?xml version="1.0" encoding="UTF-8" standalone="no"?>
<svg width="26px" height="20px" viewBox="0 0 26 20" version="1.1" xmlns="http://www.w3.org/2000/svg" xmlns:xlink="http://www.w3.org/1999/xlink">
    <!-- Generator: Sketch 3.8.3 (29802) - http://www.bohemiancoding.com/sketch -->
    <title>ES</title>
    <desc>Created with Sketch.</desc>
    <defs>
        <rect id="path-1" x="0" y="0" width="26" height="20" rx="2"></rect>
        <filter x="-50%" y="-50%" width="200%" height="200%" filterUnits="objectBoundingBox" id="filter-3">
            <feMorphology radius="1" operator="erode" in="SourceAlpha" result="shadowSpreadInner1"></feMorphology>
            <feOffset dx="0" dy="0" in="shadowSpreadInner1" result="shadowOffsetInner1"></feOffset>
            <feComposite in="shadowOffsetInner1" in2="SourceAlpha" operator="arithmetic" k2="-1" k3="1" result="shadowInnerInner1"></feComposite>
            <feColorMatrix values="0 0 0 0 0   0 0 0 0 0   0 0 0 0 0  0 0 0 0.121659873 0" type="matrix" in="shadowInnerInner1"></feColorMatrix>
        </filter>
        <rect id="path-4" x="0.619047619" y="0.666666667" width="24.7619048" height="18.6666667" rx="1"></rect>
    </defs>
    <g id="Page-1" stroke="none" stroke-width="1" fill="none" fill-rule="evenodd">
        <g id="Menu-talen-tablet---1024px" transform="translate(-666.000000, -119.000000)">
            <g id="submenu" transform="translate(0.000000, 79.000000)">
                <g id="Spaans" transform="translate(655.000000, 30.000000)">
                    <g id="ES" transform="translate(11.000000, 10.000000)">
                        <mask id="mask-2" fill="white">
                            <use xlink:href="#path-1"></use>
                        </mask>
                        <g id="background">
                            <use fill="#FFD128" fill-rule="evenodd" xlink:href="#path-1"></use>
                            <use fill="black" fill-opacity="1" filter="url(#filter-3)" xlink:href="#path-1"></use>
                        </g>
                        <rect id="bottom" fill="#CF3F4F" mask="url(#mask-2)" x="0" y="14.6666667" width="26" height="5.33333333"></rect>
                        <rect id="top" fill="#CF3F4F" mask="url(#mask-2)" x="0" y="0" width="26" height="5.33333333"></rect>
                        <path d="M4.70889281,6.66666667 C4.15958648,6.66666667 3.71428571,7.11443732 3.71428571,7.66473403 L3.71428571,12.335266 C3.71428571,12.8864834 4.1594895,13.3333333 4.70889281,13.3333333 L8.91015481,13.3333333 C9.45946114,13.3333333 9.9047619,12.8855627 9.9047619,12.335266 L9.9047619,7.66473403 C9.9047619,7.11351664 9.45955812,6.66666667 8.91015481,6.66666667 L4.70889281,6.66666667 Z M4.95238095,8 L4.95238095,12 L8.66666667,12 L8.66666667,8 L4.95238095,8 Z M6.19047619,8 L6.19047619,12 L7.42857143,12 L7.42857143,8 L6.19047619,8 Z" id="symbol" fill="#CF3F4F" mask="url(#mask-2)"></path>
                        <path d="M7.42857143,9.33333333 L7.42857143,10.6666667 L8.66666667,10.6666667 L8.66666667,9.33333333 L7.42857143,9.33333333 Z M4.95238095,8 L4.95238095,9.33333333 L6.19047619,9.33333333 L6.19047619,8 L4.95238095,8 Z" id="circles" fill="#DC6943" mask="url(#mask-2)"></path>
                        <mask id="mask-5" fill="white">
                            <use xlink:href="#path-4"></use>
                        </mask>
                        <use id="overlay" stroke-opacity="0.156646286" stroke="#2F343A" xlink:href="#path-4"></use>
                    </g>
                </g>
            </g>
        </g>
    </g>
</svg>