<?xml version="1.0" encoding="UTF-8" standalone="no"?>
<svg width="71px" height="63px" viewBox="0 0 71 63" version="1.1" xmlns="http://www.w3.org/2000/svg" xmlns:xlink="http://www.w3.org/1999/xlink">
    <!-- Generator: Sketch 3.8.3 (29802) - http://www.bohemiancoding.com/sketch -->
    <title>logo_ash</title>
    <desc>Created with Sketch.</desc>
    <defs></defs>
    <g id="Page-1" stroke="none" stroke-width="1" fill="none" fill-rule="evenodd">
        <g id="homepage-v1---1680px-wide---design-1440px" transform="translate(-130.000000, -48.000000)">
            <g id="0.-Blok---Hooft_menu_en_browser---118px">
                <g id="logo_ash" transform="translate(130.000000, 48.000000)">
                    <path d="M0.01864607,12.3565275 L2.202199,53.7604505 C2.202199,53.7604505 2.68732394,62.961539 11.9475511,62.4795122 L62.1725398,59.8642812 C62.1725398,59.8642812 71.4324398,59.3816044 70.9469877,50.181166 L68.7631077,8.77659287 C68.7631077,8.77659287 68.2783099,-0.424495604 59.0177556,0.0581812504 L8.79309405,2.6734122 C8.79309405,2.6734122 -0.467133121,3.15543899 0.01864607,12.3565275 Z" id="Fill-1" fill="#F35026"></path>
                    <path d="M64.6459246,18.3179929 C64.6459246,18.3179929 64.641672,18.0498391 64.5821354,17.555786 C64.515075,17.062708 64.4159564,16.3326796 64.0705134,15.4472845 C63.8928851,15.0094625 63.6498319,14.5238603 63.2291504,14.0879885 C63.0184825,13.8731404 62.7574375,13.6755192 62.4460154,13.5403046 C62.1359019,13.4031399 61.7799909,13.3374828 61.4234257,13.3469089 C60.1283417,13.3748619 58.6988096,13.3527595 57.1178192,13.2900277 C55.5433712,13.2129945 53.8334939,13.1112585 52.056229,12.8941352 C51.1775738,12.7511199 50.2563925,12.6760368 49.4732576,12.3249991 C49.2890868,12.2193627 49.1268333,12.1459048 48.9191095,12.0207664 C48.7159655,11.9001784 48.5128214,11.7792654 48.3083689,11.6580274 C47.8906315,11.4061254 47.4692958,11.1509729 47.0443617,10.8941954 C45.3207451,9.87326068 43.4198274,8.93455984 41.3739936,8.28026455 C39.3265243,7.63246996 37.1491867,7.25445435 34.9626897,7.17514583 C34.4163925,7.16311953 33.8704225,7.17059534 33.3234711,7.16832009 C33.0493412,7.16116932 32.777174,7.17742107 32.5059882,7.20017351 L31.6917765,7.2586798 L30.8559746,7.32173657 L30.0751295,7.42282243 L29.2975557,7.52130801 L28.9095866,7.57038829 L28.5101681,7.63994576 C26.3606361,7.97083131 24.3305043,8.50356354 22.4014539,9.23651728 C20.4825443,9.96979606 18.7190186,10.9257238 17.1684507,11.9508839 C16.4193367,12.4559881 15.6908314,12.948091 14.9858791,13.4236171 C14.8232985,13.5243779 14.6561381,13.6387902 14.5010813,13.729475 L14.2756929,13.8516881 L14.1644707,13.9137698 L14.0722217,13.9472484 C14.0192276,13.9687007 13.9286143,14.0041295 13.9093139,14.0190811 L13.6122853,14.0873384 C13.4127397,14.1312181 13.2756747,14.1520204 13.091831,14.1832237 C12.3580918,14.2872349 11.6004725,14.3489915 10.8601908,14.4432516 C10.1189278,14.5423873 9.38028169,14.6574497 8.68841436,14.9454306 C8.51569287,15.014013 8.34656974,15.1089232 8.1839891,15.1950574 C8.02664244,15.3091447 7.86308042,15.3926786 7.72732394,15.5308185 C7.58567924,15.6579071 7.45352113,15.7859709 7.35047706,15.9410125 C7.2925761,16.0235714 7.24906861,16.0681012 7.18462517,16.1795882 C7.15158564,16.24297 7.11985461,16.3053767 7.08812358,16.3671333 C6.83427533,16.8377839 6.62000909,17.3916434 6.4718219,17.8330408 C6.17184916,18.7333875 6.03740118,19.4552901 5.95071331,19.948043 C5.86598819,20.4391708 5.83916402,20.7056994 5.83916402,20.7056994 L6.05081327,20.7518544 C6.05081327,20.7515293 6.13226715,20.5041778 6.31709223,20.0484788 C6.50355293,19.5963552 6.76754203,18.9251581 7.18920491,18.1336981 C7.40445252,17.732605 7.61773739,17.3571897 7.96383462,16.89434 L8.08487051,16.7217464 L8.18529759,16.624886 C8.25170377,16.5436273 8.344607,16.4825207 8.4371831,16.420114 C8.51961836,16.3499065 8.64523398,16.3135026 8.74467969,16.2549963 C8.86604271,16.215017 8.98086324,16.1662617 9.1136756,16.1344083 C9.6403453,16.0027692 10.2739846,15.9478383 10.9701045,15.9397124 C11.6698228,15.9280111 12.4323489,15.954989 13.2753476,15.9000581 C13.4837256,15.8841314 13.7450977,15.8607289 13.9443162,15.833426 L14.2465788,15.7905214 L14.2927033,15.7817454 L14.3178919,15.7749197 L14.3679418,15.7615933 L14.468696,15.7342903 L14.6695502,15.6767592 L14.8713857,15.6163027 L15.0405089,15.5438199 L15.3807179,15.3952789 C15.5962926,15.2922428 15.7896229,15.1840062 15.9976738,15.0760946 C16.7333757,14.6395727 17.4939391,14.1880992 18.2764198,13.7242744 C19.8116129,12.8492804 21.4410177,12.00744 23.2235166,11.3303922 C24.9873694,10.6383929 26.9102045,10.0478044 28.8516856,9.63305988 L29.2177374,9.54725066 L29.6027624,9.47736815 L30.3741209,9.33825321 L31.1484234,9.20076344 L31.8815084,9.11560429 L32.6397819,9.02686976 C32.8929759,8.9937162 33.1468242,8.96706333 33.4009995,8.96283788 C33.9090232,8.94366082 34.4196638,8.91375761 34.9289959,8.90140628 C36.9689414,8.89783089 39.00398,9.17086023 40.9434984,9.70229232 C42.8833439,10.2425004 44.7073876,11.0534625 46.4205361,11.9811121 C46.8516856,12.2196878 47.2789096,12.4556631 47.7022081,12.6900133 C47.9203998,12.808001 48.1369559,12.9256636 48.3522035,13.0426762 C48.5605816,13.1587136 48.8373285,13.2799517 49.0748205,13.3933889 C49.1938937,13.4427942 49.3011904,13.4749726 49.4143753,13.5162521 L49.4984462,13.5458302 L49.5399909,13.5601318 L49.561254,13.5672825 C49.5592912,13.5669575 49.6531758,13.5968607 49.624716,13.5861346 L49.809214,13.6205883 C50.0552113,13.6660931 50.2999,13.710948 50.5426261,13.7558028 C51.0238255,13.8282856 51.4870332,13.8568886 51.9502408,13.9075941 C53.7870423,14.0411834 55.5109859,14.0584103 57.1034257,14.0584103 C58.6912858,14.0444338 60.1679237,13.9940534 61.4456701,13.9027186 C62.0201,13.8526632 62.5320491,14.0749871 62.9003907,14.4237495 C63.2742935,14.7692617 63.5291231,15.1973326 63.7172194,15.5981007 C64.0901408,16.4093879 64.2327669,17.1202392 64.3246888,17.5944652 C64.4103953,18.0735666 64.4293685,18.3306693 64.4293685,18.3306693 L64.6459246,18.3179929" id="Fill-2" fill="#FFFFFF"></path>
                    <path d="M60.3805543,53.2953255 L61.4780554,53.2381194 L61.1731758,47.4563982 L59.9180009,47.5217303 L58.2287324,50.1031576 L56.2767833,47.7115507 L55.0137574,47.7772077 L55.3183099,53.5586038 L56.415811,53.5017227 L56.1936938,49.2977211 L58.1806452,51.7202063 L58.3968741,51.7088301 L60.1594184,49.0997748 L60.3805543,53.2953255 L60.3805543,53.2953255 Z M52.7428623,52.6082017 L49.4762017,52.7778699 L49.4071786,51.4731798 L52.5577101,51.3090371 L52.5043889,50.292978 L49.3535302,50.4571206 L49.2831985,49.1277278 L52.5505134,48.9574095 L52.4945752,47.9000709 L48.1389187,48.1269453 C48.2406542,50.051477 48.3420627,51.9844597 48.4437983,53.9086664 L52.7997819,53.681467 L52.7428623,52.6082017 L52.7428623,52.6082017 Z M41.6304589,48.4659567 L41.9350114,54.2476778 L46.024716,54.0344549 L45.9717219,53.0271717 L42.9795184,53.1825384 L42.7273058,48.4090756 L41.6304589,48.4659567 L41.6304589,48.4659567 Z M37.1871331,49.716041 C37.8767106,49.6802872 38.2090686,50.1268851 38.2332758,50.5894098 C38.257483,51.0516095 37.9826988,51.5297358 37.2846161,51.5661398 L35.6139936,51.6529241 L35.5165107,49.8031504 L37.1871331,49.716041 L37.1871331,49.716041 Z M39.8201545,54.2834317 L37.9539119,52.4011545 C39.0478146,52.1203243 39.3710132,51.2999362 39.3294684,50.507501 C39.2764743,49.5076936 38.505443,48.6372501 37.1334848,48.6999818 C36.210995,48.748412 35.287851,48.7880663 34.3650341,48.8358464 L34.6705679,54.6260185 L35.7677419,54.5688123 L35.6656792,52.6361547 L36.7213085,52.5812238 L38.5191822,54.4251469 L39.82408,54.3572146 L39.8201545,54.2834317 L39.8201545,54.2834317 Z M30.2704225,52.7430912 L28.109114,52.8555533 L29.0597365,50.3378328 L30.2704225,52.7430912 L30.2704225,52.7430912 Z M31.3123126,54.8008873 L32.5092594,54.7381555 L29.5942572,49.092624 L28.3973103,49.1553558 L26.0920672,55.0726165 L27.280836,55.0105348 L27.7221263,53.8946899 L30.7643798,53.7357478 L31.3123126,54.8008873 L31.3123126,54.8008873 Z M22.3818264,53.1536103 L20.2205179,53.2660724 L21.1714675,50.749002 L22.3818264,53.1536103 L22.3818264,53.1536103 Z M23.4240436,55.2114064 L24.6209905,55.1489997 L21.7059882,49.5037932 L20.5090413,49.5655498 L18.2037983,55.4831356 L19.392567,55.421704 L19.8338573,54.304884 L22.8761109,54.146592 L23.4240436,55.2114064 L23.4240436,55.2114064 Z M16.1095502,55.6004732 L15.8046706,49.8190771 L14.7156747,49.8756331 L14.8442344,52.3120949 L11.9848433,52.4609609 L11.8562835,50.0244991 L10.7591095,50.0817053 L11.0639891,55.8631014 L12.1611631,55.8062203 L12.0378373,53.4685691 L14.8972285,53.3197031 L15.0205543,55.6570292 L16.1095502,55.6004732 L16.1095502,55.6004732 Z" id="Fill-3" fill="#FFFFFF"></path>
                    <path d="M57.3042799,36.0372715 L60.8784371,35.8513515 L60.8565198,35.4301063 L56.8413994,35.6391037 L57.146279,41.4204998 L61.2608451,41.2063018 L61.2386006,40.7769307 L57.5643435,40.9680512 L57.4436347,38.6885813 L60.8522672,38.5111123 L60.8310041,38.1064438 L57.4223716,38.2839128 L57.3042799,36.0372715 L57.3042799,36.0372715 Z M52.7500591,40.5646829 C52.2773648,41.077913 51.6250795,41.3603683 50.9688687,41.394497 C49.289741,41.4819314 48.3633258,40.3540602 48.2750023,39.0002898 C48.1938755,37.6133658 49.0038346,36.3785581 50.6993185,36.2901487 C51.3558564,36.25602 52.0254793,36.4614421 52.5505134,36.9307925 L52.8439437,36.6506124 C52.2318946,36.1026035 51.4435257,35.8539518 50.6787097,35.8936061 C48.6832531,35.9976172 47.7453885,37.4957032 47.8438528,39.039619 C47.9344662,40.6001117 49.0290232,41.9100024 50.9904589,41.8072914 C51.7552749,41.7676371 52.5128941,41.4383767 53.0644253,40.8299114 L52.7500591,40.5646829 L52.7500591,40.5646829 Z M44.0295866,42.1037232 L43.724707,36.3220021 L43.2837438,36.3450796 L43.5892776,42.1264756 L44.0295866,42.1037232 L44.0295866,42.1037232 Z M39.0281872,36.5667534 L37.1540936,41.9646083 L34.7222535,36.7910275 L34.2400727,36.8163802 L36.9401545,42.4895397 L37.4220082,42.464512 L39.510368,36.5417257 L39.0281872,36.5667534 L39.0281872,36.5667534 Z M26.7728124,37.6188914 L28.8837438,37.5090296 C29.8484325,37.4589742 30.350895,38.136672 30.3783735,38.8143698 C30.4127215,39.6240318 29.9936756,40.2175456 28.9799182,40.2705263 L26.9183826,40.3774628 L26.7728124,37.6188914 L26.7728124,37.6188914 Z M29.0754384,40.6631684 C30.3469696,40.5965363 30.9272876,39.7381191 30.8690595,38.797143 C30.8134484,37.8971213 30.1258337,37.0302532 28.8621536,37.0959102 C28.00607,37.140765 27.1578373,37.1846447 26.3020809,37.2294996 L26.6066333,43.0108957 L27.0557746,42.9874931 L26.9402999,40.799033 L28.5278328,40.7161491 L30.6547933,42.799948 L31.2452522,42.7693947 L29.0754384,40.6631684 L29.0754384,40.6631684 Z M18.6601363,38.0498877 L22.2346206,37.8636427 L22.2120491,37.4423974 L18.1972558,37.6513949 L18.5021354,43.432791 L22.6170286,43.218593 L22.5944571,42.7895469 L18.9201999,42.9806674 L18.8001454,40.7008725 L22.2081236,40.5234034 L22.1868605,40.118735 L18.7788823,40.296204 L18.6601363,38.0498877 L18.6601363,38.0498877 Z M14.1304498,38.7659396 C13.5121854,37.9452265 12.7817174,37.8506413 11.9504952,37.8938709 C10.9943117,37.9436013 9.73455702,38.3901993 9.824189,39.6113554 C9.88012721,40.6771449 10.9802453,40.8347869 12.055502,40.9859281 C13.0208451,41.1178923 13.9950204,41.2576573 14.0326397,42.1255005 C14.0862881,43.1493605 12.9583644,43.4067882 12.2432712,43.4441672 C11.5285052,43.4812212 10.5958746,43.1825141 10.201363,42.4986406 L9.81273966,42.7177142 C10.3083326,43.5780816 11.3587279,43.8959657 12.2648614,43.8488357 C13.2374012,43.7981302 14.542299,43.4155641 14.4814539,42.1102239 C14.415702,40.8630649 13.2416538,40.7252501 12.1084961,40.5692334 C11.1179646,40.4385693 10.3106224,40.3066051 10.2716947,39.5713762 C10.2229532,38.6463268 11.2906861,38.3424191 11.9724125,38.3073154 C12.6292776,38.2809875 13.3159109,38.3446944 13.7761745,38.9996397 L14.1304498,38.7659396 L14.1304498,38.7659396 Z" id="Fill-4" fill="#FFFFFF"></path>
                    <path d="M50.1003544,23.9644995 C50.4569196,30.727176 60.453503,30.1902183 60.097592,23.4441186 L60.0112313,21.8101681 C59.6553203,15.0640683 49.6577556,15.5685225 50.0143208,22.330874 L50.1003544,23.9644995 L50.1003544,23.9644995 Z M52.1474966,22.2197121 C51.9315947,18.1268724 57.6647706,17.8769205 57.8780554,21.92133 L57.9644162,23.5552805 C58.1809723,27.664372 52.4504134,27.962754 52.2332031,23.8536626 L52.1474966,22.2197121 L52.1474966,22.2197121 Z M41.1574375,29.2970224 L43.3069696,29.1852104 L42.8117038,19.8021023 L46.4260972,19.6139071 L46.3237074,17.6724736 C43.0187733,17.8447421 40.2342935,17.9897076 36.9453885,18.161001 L37.0481054,20.1024346 L40.6624989,19.9142394 L41.1574375,29.2970224 L41.1574375,29.2970224 Z M30.9387369,18.4899364 L31.2805816,24.9773083 C31.3829714,26.9187419 30.4359473,28.1522494 28.6612994,28.2445593 C26.8863244,28.3368692 25.6573194,27.3139843 25.5493685,25.2756904 L25.2075239,18.7883184 L23.0746751,18.8994804 L23.4165198,25.3868523 C23.5967651,28.800369 26.012249,30.3290082 28.747333,30.186643 C31.6129396,30.0374519 33.5904044,28.2149811 33.4137574,24.8661464 L33.0712585,18.3787744 L30.9387369,18.4899364 L30.9387369,18.4899364 Z M16.728796,26.4324896 L12.495811,26.6528633 L14.3584552,21.7217586 L16.728796,26.4324896 L16.728796,26.4324896 Z M18.77005,30.4629226 L21.1145479,30.3407095 L15.404925,19.2826965 L13.0604271,19.4049097 L8.54546115,30.9953298 L10.8732758,30.8740918 L11.7378646,28.6879069 L17.6970831,28.3774986 L18.77005,30.4629226 L18.77005,30.4629226 Z" id="Fill-5" fill="#FFFFFF"></path>
                    <path d="M7.62885961,35.0332386 L62.9105316,32.1544043 M8.23796456,47.5389571 L63.5700136,44.6578476" id="Stroke-6" stroke="#FFFFFF"></path>
                </g>
            </g>
        </g>
    </g>
</svg>