<?xml version="1.0" encoding="UTF-8" standalone="no"?>
<svg width="39px" height="40px" viewBox="0 0 39 40" version="1.1" xmlns="http://www.w3.org/2000/svg" xmlns:xlink="http://www.w3.org/1999/xlink">
    <!-- Generator: Sketch 3.8.3 (29802) - http://www.bohemiancoding.com/sketch -->
    <title>Twitter</title>
    <desc>Created with Sketch.</desc>
    <defs></defs>
    <g id="Page-1" stroke="none" stroke-width="1" fill="none" fill-rule="evenodd">
        <g id="detail_pagina---tabblad-specificaties---fotos" transform="translate(-1492.000000, -691.000000)">
            <g id="2.-Blok---Auto-info---645px" transform="translate(120.000000, 120.000000)">
                <g id="Share_iconen" transform="translate(1063.000000, 570.000000)">
                    <g id="Twitter" transform="translate(309.000000, 1.000000)">
                        <path d="M0,20 C0,8.95430446 8.64698548,0 19.3135838,0 C29.9801821,0 38.6271676,8.95430446 38.6271676,20 C38.6271676,31.0456955 29.9801821,40 19.3135838,40 C8.64698548,40 0,31.0456955 0,20 Z" fill="#B9B9B9"></path>
                        <path d="M18.8355648,15.9253184 L18.8760347,16.6173635 L18.2015367,16.5326233 C15.7463643,16.2077858 13.6014609,15.106163 11.7803165,13.2560015 L10.8899792,12.3379825 L10.6606499,13.0159042 C10.1750114,14.5271048 10.4852805,16.1230456 11.4970274,17.1964217 C12.0366257,17.7896032 11.9152161,17.8743434 10.984409,17.5212592 C10.6606499,17.4082722 10.3773608,17.323532 10.3503809,17.3659021 C10.2559512,17.4647657 10.5797102,18.7499924 10.8360194,19.2584337 C11.1867583,19.9646022 11.9017261,20.6566473 12.6841437,21.066225 L13.3451517,21.3910625 L12.5627341,21.4051859 C11.8072964,21.4051859 11.7803165,21.4193093 11.8612563,21.7159 C12.1310554,22.6339191 13.1967621,23.6084316 14.3838785,24.0321327 L15.2202559,24.3287234 L14.4917982,24.7806713 C13.4126015,25.4303463 12.1445454,25.7975539 10.8764893,25.8258006 C10.2694412,25.839924 9.77031269,25.8964175 9.77031269,25.9387876 C9.77031269,26.0800213 11.4160876,26.87093 12.3738747,27.1816441 C15.2472358,28.0996632 18.6601953,27.7042088 21.2232874,26.1365148 C23.0444318,25.0207686 24.8655762,22.8033995 25.7154436,20.6566473 C26.1741022,19.5126543 26.6327608,17.4223956 26.6327608,16.4196363 C26.6327608,15.7699613 26.6732307,15.6852211 27.4286684,14.9084358 C27.873837,14.4564879 28.2920257,13.96217 28.3729654,13.8209363 C28.507865,13.5525923 28.4943751,13.5525923 27.8063872,13.7926896 C26.6597407,14.2163907 26.4978612,14.1598972 27.0644395,13.5243455 C27.4826282,13.0723977 27.9817567,12.2532423 27.9817567,12.013145 C27.9817567,11.9707749 27.7794073,12.0413917 27.550078,12.168502 C27.3072587,12.3097357 26.7676604,12.5215863 26.3629616,12.6486966 L25.6345039,12.8887939 L24.9734959,12.4227227 C24.609267,12.168502 24.0966486,11.8860346 23.8268494,11.8012944 C23.1388616,11.6035672 22.0866448,11.631814 21.4661067,11.8577879 C19.7798619,12.4933395 18.7141552,14.1316504 18.8355648,15.9253184 Z" id="Path" fill="#FFFFFF"></path>
                    </g>
                </g>
            </g>
        </g>
    </g>
</svg>