<?xml version="1.0" encoding="UTF-8" standalone="no"?>
<svg width="41px" height="42px" viewBox="0 0 41 42" version="1.1" xmlns="http://www.w3.org/2000/svg" xmlns:xlink="http://www.w3.org/1999/xlink">
    <!-- Generator: Sketch 3.8.3 (29802) - http://www.bohemiancoding.com/sketch -->
    <title>Mail</title>
    <desc>Created with Sketch.</desc>
    <defs></defs>
    <g id="Page-1" stroke="none" stroke-width="1" fill="none" fill-rule="evenodd">
        <g id="detail_pagina---tabblad-specificaties---fotos" transform="translate(-1356.000000, -690.000000)">
            <g id="2.-Blok---Auto-info---645px" transform="translate(120.000000, 120.000000)">
                <g id="Share_iconen" transform="translate(1063.000000, 570.000000)">
                    <g id="Mail" transform="translate(173.000000, 0.000000)">
                        <path d="M0.155006391,20.5882353 C0.155006391,9.21766635 9.2866482,0 20.5511005,0 C31.8155528,0 40.9471946,9.21766635 40.9471946,20.5882353 C40.9471946,31.9588042 31.8155528,41.1764706 20.5511005,41.1764706 C9.2866482,41.1764706 0.155006391,31.9588042 0.155006391,20.5882353 Z" fill="#B9B9B9"></path>
                        <path d="M24.1836508,21.7126279 L32.58666,27.8465671 L32.58666,13.7254902 L24.1836508,21.7126279 Z M9.5044425,13.7254902 L9.5044425,27.8465671 L17.9072713,21.711769 L9.5044425,13.7254902 Z M21.0455512,24.6952376 L19.0393369,22.7887894 L9.5044425,28.8235294 L32.58666,28.8235294 L23.0515402,22.7887894 L21.0455512,24.6952376 Z M31.8941935,13.7254902 L10.196909,13.7254902 L21.0455512,22.2729915 L31.8941935,13.7254902 Z" id="Shape" fill="#FFFFFF"></path>
                    </g>
                </g>
            </g>
        </g>
    </g>
</svg>