<?xml version="1.0" encoding="UTF-8" standalone="no"?>
<svg width="30px" height="30px" viewBox="0 0 30 30" version="1.1" xmlns="http://www.w3.org/2000/svg" xmlns:xlink="http://www.w3.org/1999/xlink">
    <!-- Generator: Sketch 3.8.3 (29802) - http://www.bohemiancoding.com/sketch -->
    <title>Search</title>
    <desc>Created with Sketch.</desc>
    <defs></defs>
    <g id="Page-1" stroke="none" stroke-width="1" fill="none" fill-rule="evenodd">
        <g id="homepage-1680px" transform="translate(-1405.000000, -24.000000)" fill="#BEBEBE">
            <g id="0.-Blok---Hooft_menu_en_browser---118px">
                <path d="M1435,52.3162112 L1426.10319,43.4117647 C1427.77223,41.3626592 1428.77556,38.7495141 1428.77556,35.8995676 C1428.77556,29.3274364 1423.4534,24 1416.88778,24 C1410.32335,24 1405,29.3274364 1405,35.8995676 C1405,42.4705089 1410.32335,47.7979453 1416.88778,47.7979453 C1419.74917,47.7979453 1422.37399,46.7852921 1424.42582,45.0991234 L1433.31788,54 L1435,52.3162112 L1435,52.3162112 Z M1416.88778,45.4168419 C1411.63576,45.4168419 1407.37756,41.1544167 1407.37756,35.8971877 C1407.37756,30.6387688 1411.63457,26.3763437 1416.88778,26.3763437 C1422.1398,26.3763437 1426.398,30.6387688 1426.398,35.8971877 C1426.39919,41.1556067 1422.14099,45.4168419 1416.88778,45.4168419 L1416.88778,45.4168419 Z" id="Search"></path>
            </g>
        </g>
    </g>
</svg>