<?xml version="1.0" encoding="UTF-8" standalone="no"?>
<svg width="26px" height="20px" viewBox="0 0 26 20" version="1.1" xmlns="http://www.w3.org/2000/svg" xmlns:xlink="http://www.w3.org/1999/xlink">
    <!-- Generator: Sketch 3.7.2 (28276) - http://www.bohemiancoding.com/sketch -->
    <title>TR</title>
    <desc>Created with Sketch.</desc>
    <defs>
        <rect id="path-1" x="0" y="0" width="26" height="20" rx="2"></rect>
        <path d="M16.0952381,8 L16.0952381,9.33333333 L17.3333333,9.33333333 L17.3333333,8 L16.0952381,8 L16.0952381,8 Z M16.0952381,10.6666667 L16.0952381,12 L17.3333333,12 L17.3333333,10.6666667 L16.0952381,10.6666667 L16.0952381,10.6666667 Z M17.3333333,9.33333333 L17.3333333,10.6666667 L18.5714286,10.6666667 L18.5714286,9.33333333 L17.3333333,9.33333333 L17.3333333,9.33333333 Z M14.8571429,9.33333333 L14.8571429,10.6666667 L16.0952381,10.6666667 L16.0952381,9.33333333 L14.8571429,9.33333333 L14.8571429,9.33333333 Z" id="path-3"></path>
        <mask id="mask-4" maskContentUnits="userSpaceOnUse" maskUnits="objectBoundingBox" x="0" y="0" width="3.71428571" height="4" fill="white">
            <use xlink:href="#path-3"></use>
        </mask>
        <rect id="path-5" x="0.619047619" y="0.666666667" width="24.7619048" height="18.6666667" rx="1"></rect>
    </defs>
    <g id="Page-1" stroke="none" stroke-width="1" fill="none" fill-rule="evenodd">
        <g id="homepage---submenu-landen---1680px-wide---design-1440px" transform="translate(-1156.000000, -159.000000)">
            <g id="submenu" transform="translate(120.000000, 119.000000)">
                <g id="nederlands-copy-5" transform="translate(1025.000000, 30.000000)">
                    <g id="TR" transform="translate(11.000000, 10.000000)">
                        <mask id="mask-2" fill="white">
                            <use xlink:href="#path-1"></use>
                        </mask>
                        <use id="background" fill="#E82E2E" xlink:href="#path-1"></use>
                        <path d="M14.9216117,13.6841141 C13.9021233,15.0935058 12.3112664,16 10.5238095,16 C7.44679449,16 4.95238095,13.3137085 4.95238095,10 C4.95238095,6.6862915 7.44679449,4 10.5238095,4 C12.3112664,4 13.9021233,4.90649423 14.9216117,6.31588587 C14.1348996,5.70011138 13.1457784,5.33333333 12.0714286,5.33333333 C9.50724938,5.33333333 7.42857143,7.42267117 7.42857143,10 C7.42857143,12.5773288 9.50724938,14.6666667 12.0714286,14.6666667 C13.1457784,14.6666667 14.1348996,14.2998886 14.9216117,13.6841141 Z" id="circle" fill="#FFFFFF" mask="url(#mask-2)"></path>
                        <g id="star" mask="url(#mask-2)" stroke-width="2" stroke="#E6B6B7">
                            <use mask="url(#mask-4)" xlink:href="#path-3"></use>
                        </g>
                        <rect id="star" fill="#FFFFFF" mask="url(#mask-2)" x="16.0952381" y="9.33333333" width="1.23809524" height="1.33333333"></rect>
                        <mask id="mask-6" fill="white">
                            <use xlink:href="#path-5"></use>
                        </mask>
                        <use id="overlay" stroke-opacity="0.156646286" stroke="#2F343A" xlink:href="#path-5"></use>
                    </g>
                </g>
            </g>
        </g>
    </g>
</svg>