<?xml version="1.0" encoding="UTF-8" standalone="no"?>
<svg width="17px" height="30px" viewBox="0 0 17 30" version="1.1" xmlns="http://www.w3.org/2000/svg" xmlns:xlink="http://www.w3.org/1999/xlink">
    <!-- Generator: Sketch 3.8.3 (29802) - http://www.bohemiancoding.com/sketch -->
    <title>iPhone</title>
    <desc>Created with Sketch.</desc>
    <defs></defs>
    <g id="Page-1" stroke="none" stroke-width="1" fill="none" fill-rule="evenodd">
        <g id="homepage-1680px" transform="translate(-511.000000, -4894.000000)">
            <g id="8.-Blok---Footer---540px" transform="translate(0.000000, 4879.000000)">
                <g id="contact-gegevens-strook">
                    <g id="gegevens" transform="translate(201.000000, 13.000000)">
                        <g id="iPhone" transform="translate(310.000000, 2.000000)">
                            <g id="miu">
                                <g id="device_iPhone_smart-phone_vertical_glyph">
                                    <g id="path-1-link" fill="#FFFFFF">
                                        <path d="M0,2.67970792 L0,26.7970791 C0,29.476787 3.06818183,29.476787 3.06818183,29.476787 L13.8068182,29.476787 C13.8068182,29.476787 16.875,29.476787 16.875,26.7970791 L16.875,2.67970792 C16.875,0 13.8068182,0 13.8068182,0 L3.06818183,0 C3.06818183,0 0,0 0,2.67970792 L0,2.67970792 Z M1.53409091,3.34448161 L1.53409091,24.7491639 L15.3409091,24.7491639 L15.3409091,3.34448161 L1.53409091,3.34448161 L1.53409091,3.34448161 Z M8.4375,28.3611999 C9.28475504,28.3611999 9.97159091,27.7622498 9.97159091,27.0234072 C9.97159091,26.2845648 9.28475504,25.6856146 8.4375,25.6856146 C7.59024496,25.6856146 6.90340909,26.2845648 6.90340909,27.0234072 C6.90340909,27.7622498 7.59024496,28.3611999 8.4375,28.3611999 L8.4375,28.3611999 L8.4375,28.3611999 Z M6.3400559,1.33779264 C6.22755976,1.33779264 6.13636365,1.46696131 6.13636365,1.63358247 L6.13636365,1.71192983 C6.13636365,1.87529003 6.22829578,2.00771963 6.3400559,2.00771963 L10.5349441,2.00771963 C10.6474403,2.00771963 10.7386364,1.87855096 10.7386364,1.71192983 L10.7386364,1.63358247 C10.7386364,1.47022226 10.6467042,1.33779264 10.5349441,1.33779264 L6.3400559,1.33779264 L6.3400559,1.33779264 Z" id="path-1"></path>
                                    </g>
                                    <path d="M0,2.67970792 L0,26.7970791 C0,29.476787 3.06818183,29.476787 3.06818183,29.476787 L13.8068182,29.476787 C13.8068182,29.476787 16.875,29.476787 16.875,26.7970791 L16.875,2.67970792 C16.875,0 13.8068182,0 13.8068182,0 L3.06818183,0 C3.06818183,0 0,0 0,2.67970792 L0,2.67970792 Z M1.53409091,3.34448161 L1.53409091,24.7491639 L15.3409091,24.7491639 L15.3409091,3.34448161 L1.53409091,3.34448161 L1.53409091,3.34448161 Z M8.4375,28.3611999 C9.28475504,28.3611999 9.97159091,27.7622498 9.97159091,27.0234072 C9.97159091,26.2845648 9.28475504,25.6856146 8.4375,25.6856146 C7.59024496,25.6856146 6.90340909,26.2845648 6.90340909,27.0234072 C6.90340909,27.7622498 7.59024496,28.3611999 8.4375,28.3611999 L8.4375,28.3611999 L8.4375,28.3611999 Z M6.3400559,1.33779264 C6.22755976,1.33779264 6.13636365,1.46696131 6.13636365,1.63358247 L6.13636365,1.71192983 C6.13636365,1.87529003 6.22829578,2.00771963 6.3400559,2.00771963 L10.5349441,2.00771963 C10.6474403,2.00771963 10.7386364,1.87855096 10.7386364,1.71192983 L10.7386364,1.63358247 C10.7386364,1.47022226 10.6467042,1.33779264 10.5349441,1.33779264 L6.3400559,1.33779264 L6.3400559,1.33779264 Z" id="path-1"></path>
                                </g>
                            </g>
                        </g>
                    </g>
                </g>
            </g>
        </g>
    </g>
</svg>