<?xml version="1.0" encoding="UTF-8" standalone="no"?>
<svg width="24px" height="22px" viewBox="0 0 24 22" version="1.1" xmlns="http://www.w3.org/2000/svg" xmlns:xlink="http://www.w3.org/1999/xlink">
    <!-- Generator: Sketch 3.8.3 (29802) - http://www.bohemiancoding.com/sketch -->
    <title>chat_icoon</title>
    <desc>Created with Sketch.</desc>
    <defs></defs>
    <g id="Page-1" stroke="none" stroke-width="1" fill="none" fill-rule="evenodd">
        <g id="homepage-v1---1680px-wide---design-1440px" transform="translate(-1252.000000, -4898.000000)" fill="#FFFFFF">
            <g id="8.-Blok---Footer---540px" transform="translate(0.000000, 4879.000000)">
                <g id="contact-gegevens-strook">
                    <g id="gegevens" transform="translate(201.000000, 13.000000)">
                        <g id="chat_icoon" transform="translate(1051.000000, 6.000000)">
                            <path d="M21.8167521,5.95988404 L21.8167521,6.84634169 C22.4702243,6.98441159 22.969647,7.65307313 22.969647,8.45919364 L22.968083,20.4666932 L20.6224124,17.7169028 L8.92012517,17.7169028 C8.23589522,17.7169028 7.66661589,17.1386587 7.54488812,16.3789688 L6.78845561,16.3789688 C6.91826381,17.6286236 7.81884076,18.6033604 8.92012517,18.6033604 L20.3093609,18.6033604 L22.4996788,21.1701777 C22.7449589,21.4576197 22.9563534,21.5911076 23.1661839,21.5911076 C23.515467,21.5911076 23.7120039,21.2343252 23.7258188,20.8619641 L23.7258188,8.45919364 C23.7258188,7.16433011 22.8883214,6.10589601 21.8167521,5.95988404 L21.8167521,5.95988404 Z" id="Shape"></path>
                            <path d="M18.7915434,15.4928166 C20.0450527,15.4928166 21.0603196,14.301811 21.0603196,12.8337491 L21.0603196,3.12425814 C21.0603196,1.65589084 20.044792,0.46519066 18.7915434,0.46519066 L2.6656117,0.46519066 C1.41262374,0.46519066 0.396574829,1.65558537 0.396574829,3.12425814 L0.396574829,10.8024109 L0.396574829,12.8337491 L0.396574829,18.9375385 C0.396574829,18.9375385 0.428114572,19.7613759 1.13710714,18.9305128 L4.0710852,15.4928166 L18.7915434,15.4928166 L18.7915434,15.4928166 Z" id="Shape"></path>
                        </g>
                    </g>
                </g>
            </g>
        </g>
    </g>
</svg>