<?xml version="1.0" encoding="UTF-8" standalone="no"?>
<svg width="34px" height="34px" viewBox="0 0 34 34" version="1.1" xmlns="http://www.w3.org/2000/svg" xmlns:xlink="http://www.w3.org/1999/xlink">
    <!-- Generator: Sketch 3.8.3 (29802) - http://www.bohemiancoding.com/sketch -->
    <title>whatsapp</title>
    <desc>Created with Sketch.</desc>
    <defs></defs>
    <g id="Page-1" stroke="none" stroke-width="1" fill="none" fill-rule="evenodd">
        <g id="homepage-v1---1680px-wide---design-1440px" transform="translate(-725.000000, -4892.000000)">
            <g id="8.-Blok---Footer---540px" transform="translate(0.000000, 4879.000000)">
                <g id="contact-gegevens-strook">
                    <g id="gegevens" transform="translate(201.000000, 13.000000)">
                        <g id="whatsapp" transform="translate(524.000000, 0.000000)">
                            <g id="Mail-Copy" fill="#FFFFFF">
                                <path d="M0.12726239,16.6666667 C0.12726239,7.46192038 7.62446656,0 16.8727376,0 C26.1210087,0 33.6182128,7.46192038 33.6182128,16.6666667 C33.6182128,25.871413 26.1210087,33.3333333 16.8727376,33.3333333 C7.62446656,33.3333333 0.12726239,25.871413 0.12726239,16.6666667 Z" id="Mail"></path>
                            </g>
                            <g id="balloon-tip" transform="translate(8.333333, 7.333333)" fill="#595959">
                                <path d="M9,18 C13.7864681,18 17.6666667,13.970563 17.6666667,9 C17.6666667,4.02943701 13.7864681,0 9,0 C4.21353193,0 0.333333333,4.02943701 0.333333333,9 C0.333333333,13.970563 4.21353193,18 9,18 Z" id="Oval-1"></path>
                                <polygon id="Triangle-1" points="1.04088027 16.9262112 1.3382502 13.3953293 4.57998926 16.7522484"></polygon>
                            </g>
                            <path d="M15.7864782,12.8381417 L16.464414,14.6979627 C16.464414,14.6979627 16.5341641,15.2263629 15.8553479,15.7232848 C15.1765317,16.2202067 18.2219601,18.9899658 18.8430588,18.7601747 C19.4641575,18.5303836 19.7333753,17.4805302 19.7333753,17.4805302 L21.6647586,18.5519842 C21.6647586,18.5519842 21.8009326,20.8127727 19.7725058,20.6591807 C17.744079,20.5055886 16.0375003,19.0655136 16.0375003,19.0655136 C16.0375003,19.0655136 13.0948872,16.3303805 13.7662687,14.1490474 C14.4376501,11.9677142 15.7864782,12.8381417 15.7864782,12.8381417 Z" id="phone" fill="#FFFFFF"></path>
                        </g>
                    </g>
                </g>
            </g>
        </g>
    </g>
</svg>