<?xml version="1.0" encoding="UTF-8" standalone="no"?>
<svg width="26px" height="20px" viewBox="0 0 26 20" version="1.1" xmlns="http://www.w3.org/2000/svg" xmlns:xlink="http://www.w3.org/1999/xlink">
    <!-- Generator: Sketch 3.8.3 (29802) - http://www.bohemiancoding.com/sketch -->
    <title>GB</title>
    <desc>Created with Sketch.</desc>
    <defs>
        <rect id="path-1" x="0" y="0" width="26" height="20" rx="2"></rect>
        <rect id="path-3" x="0.619047619" y="0.666666667" width="24.7619048" height="18.6666667" rx="1"></rect>
    </defs>
    <g id="Page-1" stroke="none" stroke-width="1" fill="none" fill-rule="evenodd">
        <g id="Menu-talen-tablet---1024px" transform="translate(-216.000000, -119.000000)">
            <g id="submenu" transform="translate(0.000000, 79.000000)">
                <g id="engels" transform="translate(205.000000, 30.000000)">
                    <g id="GB" transform="translate(11.000000, 10.000000)">
                        <mask id="mask-2" fill="white">
                            <use xlink:href="#path-1"></use>
                        </mask>
                        <use id="background" fill="#22438B" xlink:href="#path-1"></use>
                        <polygon id="band" fill="#FFFFFF" mask="url(#mask-2)" points="3.71428568 1.33333328 1.20545013 1.36848957 1.23809527 4 22.2631326 18.7041126 24.7851538 18.6547575 24.7393242 16.0374468"></polygon>
                        <polygon id="band" fill="#C7152A" mask="url(#mask-2)" points="2.47619051 1.33333336 1.2380952 2.66666659 23.5238088 18.6666661 24.7619055 17.3333339"></polygon>
                        <path d="M22.2857142,1.33333335 L24.7619048,1.33333332 L24.7619049,3.99999996 C24.7619049,3.99999996 10.215106,13.8616164 3.73686633,18.7041134 C3.65810548,18.7629873 1.2632306,18.7083508 1.2632306,18.7083508 L1.07070482,16.1703052 L22.2857142,1.33333335 L22.2857142,1.33333335 Z" id="band" fill="#FFFFFF" mask="url(#mask-2)"></path>
                        <polygon id="band" fill="#C7152A" mask="url(#mask-2)" points="23.5768672 1.29622678 24.7619048 2.66666666 2.4761901 18.666667 1.23809525 17.3333333"></polygon>
                        <polygon id="cross" fill="#FFFFFF" mask="url(#mask-2)" points="9.9047619 1.33333333 16.0952381 1.33333333 16.0952381 6.66666667 24.7619048 6.66666667 24.7619048 13.3333333 16.0952381 13.3333333 16.0952381 18.6666667 9.9047619 18.6666667 9.9047619 13.3333333 1.23809524 13.3333333 1.23809524 6.66666667 9.9047619 6.66666667"></polygon>
                        <polygon id="cross" fill="#C7152A" mask="url(#mask-2)" points="11.1428571 1.33333333 14.8571429 1.33333333 14.8571429 8 24.7619048 8 24.7619048 12 14.8571429 12 14.8571429 18.6666667 11.1428571 18.6666667 11.1428571 12 1.23809524 12 1.23809524 8 11.1428571 8"></polygon>
                        <mask id="mask-4" fill="white">
                            <use xlink:href="#path-3"></use>
                        </mask>
                        <use id="overlay" stroke-opacity="0.156646286" stroke="#2F343A" xlink:href="#path-3"></use>
                    </g>
                </g>
            </g>
        </g>
    </g>
</svg>