<?xml version="1.0" encoding="UTF-8" standalone="no"?>
<svg width="16px" height="18px" viewBox="0 0 16 18" version="1.1" xmlns="http://www.w3.org/2000/svg" xmlns:xlink="http://www.w3.org/1999/xlink">
    <!-- Generator: Sketch 39.1 (31720) - http://www.bohemiancoding.com/sketch -->
    <title>Shape</title>
    <desc>Created with Sketch.</desc>
    <defs>
        <linearGradient x1="26.8948484%" y1="6.28885538%" x2="71.4031094%" y2="95.8993067%" id="linearGradient-1">
            <stop stop-color="#FE955B" offset="0%"></stop>
            <stop stop-color="#EB5401" offset="100%"></stop>
        </linearGradient>
    </defs>
    <g id="Page-1" stroke="none" stroke-width="1" fill="none" fill-rule="evenodd">
        <g id="hot-item" transform="translate(-989.000000, -668.000000)" fill="url(#linearGradient-1)">
            <g id="Group" transform="translate(989.000000, 668.000000)">
                <path d="M4.76475604,12.7072243 C5.76855832,11.2243346 6.04232258,9.76425856 6.04232258,9.76425856 C6.04232258,9.76425856 6.84080166,10.7908745 6.52141003,12.4106464 C7.9358587,10.8593156 8.18680927,8.34980989 7.98148608,7.41444867 C11.1525887,9.62737643 12.52141,14.4410646 10.6735013,18 C20.3921325,12.5019011 13.0917522,4.2661597 11.8141857,3.35361217 C12.2476458,4.28897338 12.3160868,5.84030418 11.4719804,6.61596958 C10.0119043,1.11787072 6.43015528,0 6.43015528,0 C6.86361535,2.82889734 4.90163817,5.93155894 3.00810204,8.25855513 C2.93966098,7.11787072 2.87121992,6.34220532 2.27806402,5.26996198 C2.14118189,7.32319392 0.567037406,8.98859316 0.156391018,11.0646388 C-0.436764875,13.7794677 0.589851094,15.8326996 4.39973703,17.9771863 C3.19061155,15.4676806 3.82939482,14.0532319 4.76475604,12.7072243 Z" id="Shape"></path>
            </g>
        </g>
    </g>
</svg>