<?xml version="1.0" encoding="UTF-8" standalone="no"?>
<svg width="40px" height="40px" viewBox="0 0 40 40" version="1.1" xmlns="http://www.w3.org/2000/svg" xmlns:xlink="http://www.w3.org/1999/xlink">
    <!-- Generator: Sketch 3.8.3 (29802) - http://www.bohemiancoding.com/sketch -->
    <title>post-instagram</title>
    <desc>Created with Sketch.</desc>
    <defs></defs>
    <g id="Page-1" stroke="none" stroke-width="1" fill="none" fill-rule="evenodd">
        <g id="homepage-1680px" transform="translate(-1168.000000, -3378.000000)" fill="#FFFFFF">
            <g id="5.-Blok---Verkoop-uw-auto-+-Social---300px" transform="translate(120.000000, 3199.000000)">
                <g id="instagram_btn" transform="translate(1030.000000, 158.000000)">
                    <g id="post-instagram" transform="translate(18.000000, 21.000000)">
                        <g id="Shape">
                            <path d="M36,0 L4,0 C1.8,0 0,1.8 0,4 L0,36 C0,38.2 1.8,40 4,40 L36,40 C38.2,40 40,38.2 40,36 L40,4 C40,1.8 38.2,0 36,0 L36,0 Z M20,12 C24.4,12 28,15.6 28,20 C28,24.4 24.4,28 20,28 C15.6,28 12,24.4 12,20 C12,15.6 15.6,12 20,12 L20,12 Z M5,36 C4.4,36 4,35.6 4,35 L4,18 L8.2,18 C8,18.6 8,19.4 8,20 C8,26.6 13.4,32 20,32 C26.6,32 32,26.6 32,20 C32,19.4 32,18.6 31.8,18 L36,18 L36,35 C36,35.6 35.6,36 35,36 L5,36 L5,36 Z M36,9 C36,9.6 35.6,10 35,10 L31,10 C30.4,10 30,9.6 30,9 L30,5 C30,4.4 30.4,4 31,4 L35,4 C35.6,4 36,4.4 36,5 L36,9 L36,9 Z"></path>
                        </g>
                    </g>
                </g>
            </g>
        </g>
    </g>
</svg>