<?xml version="1.0" encoding="UTF-8" standalone="no"?>
<svg width="19px" height="34px" viewBox="0 0 19 34" version="1.1" xmlns="http://www.w3.org/2000/svg" xmlns:xlink="http://www.w3.org/1999/xlink">
    <!-- Generator: Sketch 3.8.3 (29802) - http://www.bohemiancoding.com/sketch -->
    <title>miu</title>
    <desc>Created with Sketch.</desc>
    <defs></defs>
    <g id="Page-1" stroke="none" stroke-width="1" fill="none" fill-rule="evenodd">
        <g id="contact---1280px" transform="translate(-180.000000, -153.000000)">
            <g id="1.-Blok---Contact-Strook" transform="translate(140.000000, 121.000000)">
                <g id="tel" transform="translate(25.000000, 19.000000)">
                    <g id="iPhone" transform="translate(15.000000, 13.000000)">
                        <g id="miu">
                            <g id="device_iPhone_smart-phone_vertical_glyph">
                                <g id="path-1-link" fill="#F35026">
                                    <path d="M0,3.03700231 L0,30.3700229 C0,33.4070253 3.4291444,33.4070253 3.4291444,33.4070253 L15.4311497,33.4070253 C15.4311497,33.4070253 18.8602941,33.4070253 18.8602941,30.3700229 L18.8602941,3.03700231 C18.8602941,0 15.4311497,0 15.4311497,0 L3.4291444,0 C3.4291444,0 0,0 0,3.03700231 L0,3.03700231 Z M1.71457219,3.79041249 L1.71457219,28.0490524 L17.1457219,28.0490524 L17.1457219,3.79041249 L1.71457219,3.79041249 L1.71457219,3.79041249 Z M9.43014706,32.1426932 C10.3770792,32.1426932 11.1447193,31.4638831 11.1447193,30.6265282 C11.1447193,29.7891735 10.3770792,29.1103632 9.43014706,29.1103632 C8.48321495,29.1103632 7.71557487,29.7891735 7.71557487,30.6265282 C7.71557487,31.4638831 8.48321495,32.1426932 9.43014706,32.1426932 L9.43014706,32.1426932 L9.43014706,32.1426932 Z M7.08594483,1.51616499 C6.96021385,1.51616499 6.85828879,1.66255615 6.85828879,1.85139347 L6.85828879,1.94018714 C6.85828879,2.1253287 6.96103646,2.27541558 7.08594483,2.27541558 L11.7743493,2.27541558 C11.9000803,2.27541558 12.0020054,2.12902442 12.0020054,1.94018714 L12.0020054,1.85139347 C12.0020054,1.6662519 11.8992577,1.51616499 11.7743493,1.51616499 L7.08594483,1.51616499 L7.08594483,1.51616499 Z" id="path-1"></path>
                                </g>
                                <path d="M0,3.03700231 L0,30.3700229 C0,33.4070253 3.4291444,33.4070253 3.4291444,33.4070253 L15.4311497,33.4070253 C15.4311497,33.4070253 18.8602941,33.4070253 18.8602941,30.3700229 L18.8602941,3.03700231 C18.8602941,0 15.4311497,0 15.4311497,0 L3.4291444,0 C3.4291444,0 0,0 0,3.03700231 L0,3.03700231 Z M1.71457219,3.79041249 L1.71457219,28.0490524 L17.1457219,28.0490524 L17.1457219,3.79041249 L1.71457219,3.79041249 L1.71457219,3.79041249 Z M9.43014706,32.1426932 C10.3770792,32.1426932 11.1447193,31.4638831 11.1447193,30.6265282 C11.1447193,29.7891735 10.3770792,29.1103632 9.43014706,29.1103632 C8.48321495,29.1103632 7.71557487,29.7891735 7.71557487,30.6265282 C7.71557487,31.4638831 8.48321495,32.1426932 9.43014706,32.1426932 L9.43014706,32.1426932 L9.43014706,32.1426932 Z M7.08594483,1.51616499 C6.96021385,1.51616499 6.85828879,1.66255615 6.85828879,1.85139347 L6.85828879,1.94018714 C6.85828879,2.1253287 6.96103646,2.27541558 7.08594483,2.27541558 L11.7743493,2.27541558 C11.9000803,2.27541558 12.0020054,2.12902442 12.0020054,1.94018714 L12.0020054,1.85139347 C12.0020054,1.6662519 11.8992577,1.51616499 11.7743493,1.51616499 L7.08594483,1.51616499 L7.08594483,1.51616499 Z" id="path-1"></path>
                            </g>
                        </g>
                    </g>
                </g>
            </g>
        </g>
    </g>
</svg>