<?xml version="1.0" encoding="UTF-8" standalone="no"?>
<svg width="209px" height="185px" viewBox="0 0 209 185" version="1.1" xmlns="http://www.w3.org/2000/svg" xmlns:xlink="http://www.w3.org/1999/xlink">
    <!-- Generator: Sketch 3.8.3 (29802) - http://www.bohemiancoding.com/sketch -->
    <title>logo_ash</title>
    <desc>Created with Sketch.</desc>
    <defs>
        <path d="M0.0538372443,35.7325289 L6.3584619,155.464135 C6.3584619,155.464135 7.75917477,182.071785 34.4964504,180.677863 L179.512263,173.115155 C179.512263,173.115155 206.248594,171.719353 204.846936,145.113582 L198.541367,25.3800964 C198.541367,25.3800964 197.141599,-1.22755374 170.403379,0.168248177 L25.388511,7.73095672 C25.388511,7.73095672 -1.34876465,9.12487876 0.0538372443,35.7325289 Z" id="path-1"></path>
        <mask id="mask-2" maskContentUnits="userSpaceOnUse" maskUnits="objectBoundingBox" x="-2" y="-2" width="208.899661" height="184.615588">
            <rect x="-1.99947815" y="-1.88480874" width="208.899661" height="184.615588" fill="white"></rect>
            <use xlink:href="#path-1" fill="black"></use>
        </mask>
    </defs>
    <g id="Page-1" stroke="none" stroke-width="1" fill="none" fill-rule="evenodd">
        <g id="homepage-1680px" transform="translate(-291.000000, -4334.000000)">
            <g id="7.-Blok---Wisselende-Advertenties---760px" transform="translate(120.000000, 4259.000000)">
                <g id="wat-kan-je-van-ons-verwachten" transform="translate(140.000000, 77.000000)">
                    <g id="logo_ash" transform="translate(33.000000, 0.000000)">
                        <g id="Fill-1">
                            <use fill="#F35026" fill-rule="evenodd" xlink:href="#path-1"></use>
                            <use stroke="#FFFFFF" mask="url(#mask-2)" stroke-width="4" xlink:href="#path-1"></use>
                        </g>
                        <path d="M186.653726,52.9718575 C186.653726,52.9718575 186.641447,52.196412 186.469546,50.7677124 C186.275921,49.3418326 185.989733,47.2307409 184.992327,44.6703608 C184.479457,43.4042698 183.777684,42.0000085 182.56304,40.7395571 C181.954773,40.1182607 181.201052,39.5467809 180.301876,39.1557684 C179.406477,38.7591163 178.378847,38.5692496 177.349328,38.5965077 C173.610001,38.677342 169.482479,38.6134265 164.917647,38.4320192 C160.371706,38.2092549 155.434736,37.9150556 150.303196,37.2871797 C147.766234,36.8736088 145.106486,36.656484 142.845321,35.6413553 C142.31356,35.3358768 141.845082,35.1234517 141.245316,34.7615772 C140.658774,34.4128617 140.072231,34.0632063 139.48191,33.7126109 C138.275767,32.9841621 137.059234,32.2463139 135.832312,31.5037661 C130.855673,28.5514336 125.367107,25.8369043 119.460122,23.9448173 C113.548415,22.071529 107.261736,20.9783858 100.948611,20.7490419 C99.3712743,20.7142643 97.794882,20.7358828 96.2156561,20.7293033 C95.4241542,20.7086247 94.6383193,20.7556214 93.855318,20.8214168 L91.504425,20.9906049 L89.0911941,21.1729521 L86.8366415,21.4652716 L84.5915339,21.7500715 L83.4713415,21.8920016 L82.318091,22.0931474 C76.1116957,23.0500002 70.2500477,24.5905519 64.6802542,26.710103 C59.1397406,28.830594 54.0478707,31.5949397 49.5708788,34.5594914 C47.4079439,36.0201487 45.3045133,37.4432087 43.2690877,38.8183321 C42.7996647,39.1097116 42.3170185,39.4405684 41.8693193,39.7028099 L41.2185498,40.0562251 L40.8974154,40.2357525 L40.6310627,40.3325657 C40.4780516,40.3946013 40.2164215,40.4970541 40.1606952,40.5402911 L39.3030773,40.7376772 C38.7269244,40.8645683 38.3311734,40.9247241 37.8003571,41.0149577 C35.6818143,41.3157366 33.494322,41.494324 31.356889,41.7669049 C29.2166224,42.0535847 27.0839119,42.3863214 25.0862668,43.2191028 C24.5875639,43.4174289 24.0992507,43.6918896 23.6298277,43.9409721 C23.1755169,44.2708889 22.7032604,44.5124519 22.3112874,44.9119239 C21.9023133,45.279438 21.52073,45.649772 21.2232084,46.0981205 C21.0560296,46.3368637 20.9304094,46.4656347 20.7443403,46.788032 C20.6489445,46.9713192 20.5573267,47.1517865 20.4657089,47.3303739 C19.7327668,48.6913983 19.1141107,50.2930457 18.6862463,51.569476 C17.8201279,54.1730931 17.431933,56.2606864 17.181637,57.6856262 C16.9370081,59.1058664 16.8595581,59.8766122 16.8595581,59.8766122 L17.470658,60.0100829 C17.470658,60.0091429 17.7058418,59.2938532 18.2394917,57.9760658 C18.7778641,56.6686177 19.5400861,54.7276541 20.7575635,52.4389149 C21.3790531,51.2790364 21.9948756,50.1934127 22.9941704,48.8549468 L23.3436402,48.3558419 L23.6336057,48.0757415 C23.8253419,47.8407581 24.0935836,47.6640505 24.3608808,47.4835832 C24.5988981,47.2805574 24.9615911,47.1752848 25.2487231,47.0060967 C25.5991374,46.8904848 25.9306615,46.7494947 26.3141338,46.6573812 C27.8347998,46.276708 29.6643216,46.1178591 31.6742454,46.0943608 C33.6945588,46.0605232 35.8962187,46.1385377 38.3302289,45.9796888 C38.9318837,45.9336321 39.6865496,45.8659568 40.2617581,45.7870024 L41.1344882,45.6629311 L41.2676645,45.6375529 L41.340392,45.6178143 L41.4849025,45.579277 L41.7758125,45.5003225 L42.3557435,45.3339542 L42.9385081,45.1591265 L43.4268214,44.9495212 L44.4091149,44.5199714 C45.031549,44.2220124 45.5897563,43.9090144 46.1904666,43.5969563 C48.3146764,42.334625 50.5106693,41.0290567 52.7699445,39.687771 C57.2025443,37.1574688 61.9071638,34.7230399 67.0538155,32.7651575 C72.1466299,30.7640381 77.6984776,29.0561781 83.3041626,27.8568224 L84.3610728,27.6086798 L85.4727646,27.406594 L87.6999264,27.0043023 L89.9355888,26.6067102 L92.0522426,26.3604476 L94.2416238,26.1038456 C94.972677,26.0079723 95.7056191,25.9308977 96.4395057,25.9186786 C97.9063345,25.8632225 99.3807194,25.7767486 100.851326,25.7410311 C106.74131,25.7306918 112.617125,26.5202363 118.217143,28.0570283 C123.818106,29.6191985 129.084711,31.9643337 134.031125,34.6469052 C135.275994,35.3368168 136.509528,36.0192088 137.731728,36.6969012 C138.361718,37.0380972 138.986985,37.3783533 139.608475,37.7167295 C140.21013,38.0522859 141.009188,38.4028813 141.694904,38.7309182 C142.038707,38.8737882 142.348507,38.9668417 142.675309,39.0862133 L142.918049,39.1717473 L143.038002,39.2131043 L143.099395,39.2337829 C143.093728,39.232843 143.364803,39.3193169 143.282631,39.2882991 L143.815336,39.3879321 C144.52561,39.5195228 145.232106,39.6492337 145.932934,39.7789446 C147.322313,39.9885499 148.659744,40.071264 149.997174,40.2178937 C155.300615,40.6042066 160.278199,40.6540231 164.876088,40.6540231 C169.460755,40.6136059 173.724287,40.4679162 177.413555,40.2037947 C179.07212,40.0590449 180.550283,40.7019597 181.613804,41.7105088 C182.693383,42.7096586 183.429158,43.9475516 183.972253,45.1064902 C185.048998,47.4525653 185.460806,49.5082009 185.726214,50.8795645 C185.973676,52.2650271 186.028458,53.0085149 186.028458,53.0085149 L186.653726,52.9718575" id="Fill-2" fill="#FFFFFF"></path>
                        <path d="M174.33822,154.119089 L177.507061,153.953661 L176.626775,137.234116 L173.002679,137.423043 L168.125213,144.887998 L162.489304,137.971964 L158.842539,138.161831 L159.721881,154.880436 L162.890722,154.715948 L162.249398,142.558842 L167.98637,149.56417 L168.610693,149.531272 L173.699729,141.986422 L174.33822,154.119089 L174.33822,154.119089 Z M152.285729,152.132069 L142.853822,152.622715 L142.65453,148.84982 L151.751135,148.375153 L151.597179,145.43692 L142.499629,145.911586 L142.296559,142.067256 L151.730356,141.574731 L151.568844,138.517126 L138.992653,139.1732 C139.286396,144.738549 139.579195,150.328336 139.872939,155.892745 L152.450075,155.235731 L152.285729,152.132069 L152.285729,152.132069 Z M120.200621,140.153551 L121.079962,156.873096 L132.888265,156.256499 L132.735254,153.343644 L124.095793,153.792932 L123.367573,139.989062 L120.200621,140.153551 L120.200621,140.153551 Z M107.3713,143.768537 C109.362333,143.665144 110.321959,144.956613 110.391853,146.294139 C110.461747,147.630725 109.668356,149.013368 107.652765,149.118641 L102.829137,149.369603 L102.547672,144.020439 L107.3713,143.768537 L107.3713,143.768537 Z M114.973685,156.976489 L109.585238,151.533331 C112.74369,150.721228 113.676869,148.348835 113.556916,146.057276 C113.403905,143.166039 111.177687,140.648896 107.2164,140.830303 C104.552873,140.970353 101.887457,141.085025 99.2229857,141.223196 L100.105161,157.967179 L103.273058,157.801751 L102.97837,152.212903 L106.026313,152.054055 L111.217357,157.3863 L114.98502,157.189854 L114.973685,156.976489 L114.973685,156.976489 Z M87.4005158,152.522142 L81.160118,152.847359 L83.9048729,145.56663 L87.4005158,152.522142 L87.4005158,152.522142 Z M90.4087899,158.472864 L93.8647631,158.291456 L85.4482073,141.965744 L81.992234,142.147151 L75.3362505,159.258648 L78.7686109,159.079121 L80.0427591,155.852328 L88.8267305,155.3927 L90.4087899,158.472864 L90.4087899,158.472864 Z M64.6235834,153.709278 L58.3831856,154.034495 L61.1288851,146.755647 L64.6235834,153.709278 L64.6235834,153.709278 Z M67.632802,159.66 L71.0887753,159.479533 L62.6722194,143.15476 L59.2162461,143.333347 L52.5602626,160.445785 L55.9926231,160.268137 L57.2667712,157.038524 L66.0507426,156.580776 L67.632802,159.66 L67.632802,159.66 Z M46.51349,160.785101 L45.6332039,144.066496 L42.4889199,144.230044 L42.8601135,151.275789 L34.6041249,151.706279 L34.2329313,144.660534 L31.0650345,144.825963 L31.9453206,161.544568 L35.1132174,161.380079 L34.757136,154.620074 L43.0131246,154.189585 L43.3692061,160.94865 L46.51349,160.785101 L46.51349,160.785101 Z" id="Fill-3" fill="#FFFFFF"></path>
                        <path d="M165.456019,104.212357 L175.775769,103.674714 L175.712487,102.45656 L164.119533,103.060938 L164.99982,119.779543 L176.879905,119.160126 L176.815678,117.918473 L166.206907,118.471155 L165.858382,111.879398 L175.700208,111.366194 L175.638815,110.195976 L165.796989,110.70918 L165.456019,104.212357 L165.456019,104.212357 Z M152.306509,117.304697 C150.941687,118.788852 149.058328,119.605655 147.163635,119.704348 C142.315449,119.95719 139.640588,116.695619 139.38557,112.780794 C139.151331,108.770096 141.489945,105.199287 146.385356,104.943625 C148.280994,104.844932 150.214412,105.43897 151.730356,106.796235 L152.577584,105.986012 C150.8104,104.401283 148.534123,103.682234 146.325852,103.796906 C140.564322,104.097685 137.856403,108.42984 138.140702,112.894526 C138.402332,117.407149 141.562673,121.195083 147.225973,120.898064 C149.434244,120.783392 151.621737,119.831239 153.214186,118.071683 L152.306509,117.304697 L152.306509,117.304697 Z M127.127679,121.755284 L126.247393,105.035739 L124.97419,105.102474 L125.856365,121.821079 L127.127679,121.755284 L127.127679,121.755284 Z M112.687019,105.743509 L107.275904,121.352992 L100.254394,106.392063 L98.8621817,106.465378 L106.658192,122.870985 L108.04946,122.79861 L114.079232,105.671134 L112.687019,105.743509 L112.687019,105.743509 Z M77.3017822,108.786075 L83.3967249,108.468378 C86.1820939,108.323628 87.632866,110.28339 87.7122051,112.243152 C87.811379,114.584528 86.6014577,116.300847 83.6744118,116.454056 L77.7220905,116.763295 L77.3017822,108.786075 L77.3017822,108.786075 Z M83.9502096,117.589497 C87.6215318,117.39681 89.297098,114.914445 89.1289747,112.193336 C88.9684074,109.590659 86.983041,107.083855 83.3343871,107.273721 C80.8625964,107.403432 78.413474,107.530323 75.9426279,107.660034 L76.8219695,124.378639 L78.118786,124.310964 L77.7853728,117.982389 L82.3690947,117.742706 L88.5103186,123.768622 L90.2151647,123.680269 L83.9502096,117.589497 L83.9502096,117.589497 Z M53.8778583,110.032428 L64.1985525,109.493845 L64.1333811,108.275691 L52.5413724,108.880069 L53.4216585,125.598674 L65.3026883,124.979257 L65.2375169,123.738544 L54.6287462,124.291226 L54.2821099,117.698529 L64.122047,117.185325 L64.0606536,116.015107 L54.2207166,116.528311 L53.8778583,110.032428 L53.8778583,110.032428 Z M40.799186,112.103102 C39.0140564,109.729769 36.9049587,109.456248 34.504951,109.581259 C31.7441393,109.725069 28.1068196,111.016538 28.3656161,114.54787 C28.5271279,117.629914 31.7035253,118.085782 34.8081397,118.522851 C37.5953977,118.904464 40.4081576,119.308636 40.5167766,121.818259 C40.6716768,124.779051 37.4149957,125.523479 35.3502902,125.631571 C33.2865292,125.738724 30.5937224,124.874925 29.4546397,122.897304 L28.3325582,123.530819 C29.7634955,126.018824 32.7963269,126.93808 35.4126281,126.801789 C38.2206654,126.655159 41.988328,125.548857 41.8126485,121.774082 C41.6228014,118.167556 38.2329441,117.769024 34.9611508,117.317856 C32.1011653,116.940002 29.7701071,116.558389 29.65771,114.432258 C29.5169776,111.757206 32.5998682,110.878368 34.5682334,110.776855 C36.4648156,110.700721 38.4473485,110.884948 39.7762784,112.778915 L40.799186,112.103102 L40.799186,112.103102 Z" id="Fill-4" fill="#FFFFFF"></path>
                        <path d="M144.655953,69.30039 C145.685472,88.8566557 174.548847,87.3038848 173.521216,67.7955558 L173.271865,63.0705078 C172.244235,43.5621787 143.378027,45.0209562 144.407546,64.576282 L144.655953,69.30039 L144.655953,69.30039 Z M150.566716,64.2548246 C149.943337,52.4191763 166.496873,51.6963671 167.112695,63.3919652 L167.362047,68.1170132 C167.987314,79.9996581 151.441335,80.8625175 150.814178,68.9798725 L150.566716,64.2548246 L150.566716,64.2548246 Z M118.834855,84.7209463 L125.04125,84.3976091 L123.611257,57.2635959 L134.047182,56.7193741 L133.75155,51.1051487 C124.209134,51.6033136 116.169439,52.0225242 106.673305,52.5178694 L106.969882,58.1320948 L117.405807,57.5878731 L118.834855,84.7209463 L118.834855,84.7209463 Z M89.3301559,53.4690825 L90.3171721,72.2292242 C90.6128047,77.8434497 87.8784394,81.410499 82.754456,81.6774402 C77.6295282,81.9443815 74.0809926,78.9864093 73.7693033,73.0920835 L72.7822872,54.3319419 L66.624062,54.6533993 L67.6110782,73.413541 C68.1315049,83.2847273 75.1057893,87.7052366 83.002863,87.2935456 C91.2767974,86.8621159 96.9863788,81.5919062 96.4763417,71.9077668 L95.4874366,53.1476251 L89.3301559,53.4690825 L89.3301559,53.4690825 Z M48.3014532,76.4373085 L36.0794543,77.0745837 L41.4575116,62.8148458 L48.3014532,76.4373085 L48.3014532,76.4373085 Z M54.1952147,88.0924894 L60.9645398,87.7390743 L44.4790089,55.7615814 L37.7096838,56.1149966 L24.6735146,89.6321012 L31.3946695,89.2815059 L33.8910175,82.9595101 L51.0972119,82.0618732 L54.1952147,88.0924894 L54.1952147,88.0924894 Z" id="Fill-5" fill="#FFFFFF"></path>
                        <path d="M22.026989,101.308901 L181.643084,92.9839057 M23.7856723,137.472859 L183.547222,129.141285" id="Stroke-6" stroke="#FFFFFF"></path>
                    </g>
                </g>
            </g>
        </g>
    </g>
</svg>