<?xml version="1.0" encoding="UTF-8" standalone="no"?>
<svg width="28px" height="23px" viewBox="0 0 28 23" version="1.1" xmlns="http://www.w3.org/2000/svg" xmlns:xlink="http://www.w3.org/1999/xlink">
    <!-- Generator: Sketch 3.8.3 (29802) - http://www.bohemiancoding.com/sketch -->
    <title>miu</title>
    <desc>Created with Sketch.</desc>
    <defs></defs>
    <g id="Page-1" stroke="none" stroke-width="1" fill="none" fill-rule="evenodd">
        <g id="contact---1280px" transform="translate(-657.000000, -159.000000)">
            <g id="1.-Blok---Contact-Strook" transform="translate(140.000000, 121.000000)">
                <g id="mail" transform="translate(505.000000, 19.000000)">
                    <g id="mail_envelope" transform="translate(12.714286, 19.000000)">
                        <g id="miu">
                            <g id="common_email_envelope_mail_outline_stroke">
                                <g id="path-1-link" fill="#F35026">
                                    <path d="M0,2.84232955 L13.5910168,15.6328125 L27.1820335,2.84232955 L27.1820335,0 L0,0 L0,2.84232955 L0,2.84232955 Z M1.23554698,1.93258982 L13.5910168,13.7085498 L25.9464865,1.93258979 L25.9464865,1.42116477 L1.23554698,1.42116479 L1.23554698,1.93258982 L1.23554698,1.93258982 Z M0,20.2505572 L1.23554698,18.8528125 L1.23554698,5.79881027 L0,4.80076816 L0,20.2505572 L0,20.2505572 Z M27.1820335,20.4590825 L25.9464865,19.1692436 L25.9464865,5.89630716 L27.1820335,4.90381648 L27.1820335,20.4590825 L27.1820335,20.4590825 Z M24.0035406,21.2067033 L3.04059115,21.2067033 L9.13806672,13.9473636 L8.03105535,12.790483 L0,22.7386364 L27.1820335,22.7386364 L19.1385352,12.790483 L18.0320571,13.9473636 L24.0035406,21.2067033 L24.0035406,21.2067033 Z" id="path-1"></path>
                                </g>
                                <path d="M0,2.84232955 L13.5910168,15.6328125 L27.1820335,2.84232955 L27.1820335,0 L0,0 L0,2.84232955 L0,2.84232955 Z M1.23554698,1.93258982 L13.5910168,13.7085498 L25.9464865,1.93258979 L25.9464865,1.42116477 L1.23554698,1.42116479 L1.23554698,1.93258982 L1.23554698,1.93258982 Z M0,20.2505572 L1.23554698,18.8528125 L1.23554698,5.79881027 L0,4.80076816 L0,20.2505572 L0,20.2505572 Z M27.1820335,20.4590825 L25.9464865,19.1692436 L25.9464865,5.89630716 L27.1820335,4.90381648 L27.1820335,20.4590825 L27.1820335,20.4590825 Z M24.0035406,21.2067033 L3.04059115,21.2067033 L9.13806672,13.9473636 L8.03105535,12.790483 L0,22.7386364 L27.1820335,22.7386364 L19.1385352,12.790483 L18.0320571,13.9473636 L24.0035406,21.2067033 L24.0035406,21.2067033 Z" id="path-1"></path>
                            </g>
                        </g>
                    </g>
                </g>
            </g>
        </g>
    </g>
</svg>