<?xml version="1.0" encoding="UTF-8" standalone="no"?>
<svg width="28px" height="25px" viewBox="0 0 28 25" version="1.1" xmlns="http://www.w3.org/2000/svg" xmlns:xlink="http://www.w3.org/1999/xlink">
    <!-- Generator: Sketch 3.8.3 (29802) - http://www.bohemiancoding.com/sketch -->
    <title>chat_icoon</title>
    <desc>Created with Sketch.</desc>
    <defs></defs>
    <g id="Page-1" stroke="none" stroke-width="1" fill="none" fill-rule="evenodd">
        <g id="detail_pagina---tabblad-specificaties---fotos" transform="translate(-1269.000000, -787.000000)" fill="#F35026">
            <g id="2.-Blok---Auto-info---645px" transform="translate(120.000000, 120.000000)">
                <g id="contact_blok" transform="translate(72.000000, 648.000000)">
                    <g id="chat" transform="translate(1058.000000, 1.000000)">
                        <g id="chat_icoon" transform="translate(19.000000, 18.000000)">
                            <path d="M25.4528774,6.7725955 L25.4528774,7.77993373 C26.2152617,7.93683135 26.7979215,8.69667401 26.7979215,9.61272005 L26.7960969,23.2576059 L24.0594812,20.1328441 L10.4068127,20.1328441 C9.60854442,20.1328441 8.9443852,19.4757485 8.80236948,18.6124645 L7.91986488,18.6124645 C8.07130778,20.0325268 9.12198089,21.1401823 10.4068127,21.1401823 L23.6942544,21.1401823 L26.2496252,24.0570201 C26.5357854,24.3836587 26.7824123,24.5353495 27.0272146,24.5353495 C27.4347115,24.5353495 27.6640046,24.129915 27.680122,23.7067774 L27.680122,9.61272005 C27.680122,8.14128422 26.7030416,6.9385182 25.4528774,6.7725955 L25.4528774,6.7725955 Z" id="Shape"></path>
                            <path d="M21.9234673,17.6054734 C23.3858948,17.6054734 24.5703729,16.2520579 24.5703729,14.5838058 L24.5703729,3.55029334 C24.5703729,1.88169413 23.3855907,0.52862575 21.9234673,0.52862575 L3.10988032,0.52862575 C1.64806102,0.52862575 0.462670634,1.88134701 0.462670634,3.55029334 L0.462670634,12.275467 L0.462670634,14.5838058 L0.462670634,21.5199301 C0.462670634,21.5199301 0.499467,22.456109 1.326625,21.5119464 L4.7495994,17.6054734 L21.9234673,17.6054734 L21.9234673,17.6054734 Z" id="Shape"></path>
                        </g>
                    </g>
                </g>
            </g>
        </g>
    </g>
</svg>