<?xml version="1.0" encoding="UTF-8" standalone="no"?>
<svg width="39px" height="40px" viewBox="0 0 39 40" version="1.1" xmlns="http://www.w3.org/2000/svg" xmlns:xlink="http://www.w3.org/1999/xlink">
    <!-- Generator: Sketch 3.8.3 (29802) - http://www.bohemiancoding.com/sketch -->
    <title>Facebook</title>
    <desc>Created with Sketch.</desc>
    <defs></defs>
    <g id="Page-1" stroke="none" stroke-width="1" fill="none" fill-rule="evenodd">
        <g id="detail_pagina---tabblad-specificaties---fotos" transform="translate(-1448.000000, -691.000000)">
            <g id="2.-Blok---Auto-info---645px" transform="translate(120.000000, 120.000000)">
                <g id="Share_iconen" transform="translate(1063.000000, 570.000000)">
                    <g id="Facebook" transform="translate(265.000000, 1.000000)">
                        <path d="M0.0733897605,20 C0.0733897605,8.95430446 8.72037524,0 19.3869736,0 C30.0535719,0 38.7005574,8.95430446 38.7005574,20 C38.7005574,31.0456955 30.0535719,40 19.3869736,40 C8.72037524,40 0.0733897605,31.0456955 0.0733897605,20 Z" fill="#B9B9B9"></path>
                        <path d="M21.0019595,30.879782 L21.0019595,19.998726 L23.8983337,19.998726 L24.2821658,16.2490539 L21.0019595,16.2490539 L21.0068804,14.3723069 C21.0068804,13.3943347 21.0964823,12.8703148 22.4509668,12.8703148 L24.261662,12.8703148 L24.261662,9.12021803 L21.3648777,9.12021803 C17.8853739,9.12021803 16.6606788,10.9392124 16.6606788,13.998189 L16.6606788,16.2494786 L14.4917813,16.2494786 L14.4917813,19.9991507 L16.6606788,19.9991507 L16.6606788,30.879782 L21.0019595,30.879782 Z" id="Path" fill="#FFFFFF"></path>
                    </g>
                </g>
            </g>
        </g>
    </g>
</svg>