<?xml version="1.0" encoding="UTF-8" standalone="no"?>
<svg width="30px" height="23px" viewBox="0 0 30 23" version="1.1" xmlns="http://www.w3.org/2000/svg" xmlns:xlink="http://www.w3.org/1999/xlink">
    <!-- Generator: Sketch 3.8.3 (29802) - http://www.bohemiancoding.com/sketch -->
    <title>mail_envelope</title>
    <desc>Created with Sketch.</desc>
    <defs></defs>
    <g id="Page-1" stroke="none" stroke-width="1" fill="none" fill-rule="evenodd">
        <g id="detail_pagina---tabblad-specificaties---fotos" transform="translate(-978.000000, -788.000000)">
            <g id="2.-Blok---Auto-info---645px" transform="translate(120.000000, 120.000000)">
                <g id="contact_blok" transform="translate(72.000000, 648.000000)">
                    <g id="mail" transform="translate(768.000000, 1.000000)">
                        <g id="mail_envelope" transform="translate(18.000000, 19.000000)">
                            <g id="miu">
                                <g id="common_email_envelope_mail_outline_stroke">
                                    <g id="path-1-link" fill="#F35026">
                                        <path d="M0,2.84232955 L14.6364796,15.6328125 L29.2729592,2.84232955 L29.2729592,0 L0,0 L0,2.84232955 L0,2.84232955 Z M1.33058905,1.93258982 L14.6364796,13.7085498 L27.9423701,1.93258979 L27.9423701,1.42116477 L1.33058905,1.42116479 L1.33058905,1.93258982 L1.33058905,1.93258982 Z M0,20.2505572 L1.33058905,18.8528125 L1.33058905,5.79881027 L0,4.80076816 L0,20.2505572 L0,20.2505572 Z M29.2729592,20.4590825 L27.9423701,19.1692436 L27.9423701,5.89630716 L29.2729592,4.90381648 L29.2729592,20.4590825 L29.2729592,20.4590825 Z M25.8499668,21.2067033 L3.27448278,21.2067033 L9.84099493,13.9473636 L8.64882884,12.790483 L0,22.7386364 L29.2729592,22.7386364 L20.6107302,12.790483 L19.4191384,13.9473636 L25.8499668,21.2067033 L25.8499668,21.2067033 Z" id="path-1"></path>
                                    </g>
                                    <path d="M0,2.84232955 L14.6364796,15.6328125 L29.2729592,2.84232955 L29.2729592,0 L0,0 L0,2.84232955 L0,2.84232955 Z M1.33058905,1.93258982 L14.6364796,13.7085498 L27.9423701,1.93258979 L27.9423701,1.42116477 L1.33058905,1.42116479 L1.33058905,1.93258982 L1.33058905,1.93258982 Z M0,20.2505572 L1.33058905,18.8528125 L1.33058905,5.79881027 L0,4.80076816 L0,20.2505572 L0,20.2505572 Z M29.2729592,20.4590825 L27.9423701,19.1692436 L27.9423701,5.89630716 L29.2729592,4.90381648 L29.2729592,20.4590825 L29.2729592,20.4590825 Z M25.8499668,21.2067033 L3.27448278,21.2067033 L9.84099493,13.9473636 L8.64882884,12.790483 L0,22.7386364 L29.2729592,22.7386364 L20.6107302,12.790483 L19.4191384,13.9473636 L25.8499668,21.2067033 L25.8499668,21.2067033 Z" id="path-1"></path>
                                </g>
                            </g>
                        </g>
                    </g>
                </g>
            </g>
        </g>
    </g>
</svg>