<?xml version="1.0" encoding="UTF-8" standalone="no"?>
<svg width="43px" height="43px" viewBox="0 0 43 43" version="1.1" xmlns="http://www.w3.org/2000/svg" xmlns:xlink="http://www.w3.org/1999/xlink">
    <!-- Generator: Sketch 3.8.3 (29802) - http://www.bohemiancoding.com/sketch -->
    <title>Group 5</title>
    <desc>Created with Sketch.</desc>
    <defs></defs>
    <g id="Page-1" stroke="none" stroke-width="1" fill="none" fill-rule="evenodd">
        <g id="homepage-v1---1680px-wide---design-1440px" transform="translate(-337.000000, -1482.000000)">
            <g id="2.-Blok---Financiering-/-zoekmodule--760px" transform="translate(120.000000, 939.000000)">
                <g id="Finacierings_module" transform="translate(50.000000, 216.000000)">
                    <g id="Slider:-prijs-per-maand-v.a." transform="translate(20.000000, 308.000000)">
                        <g id="Group-5" transform="translate(148.000000, 20.000000)">
                            <path d="M20.3354195,40.7554775 C31.5663621,40.7554775 40.6708389,31.6320537 40.6708389,20.3777388 C40.6708389,9.12342385 31.5663621,0 20.3354195,0 C9.10447685,0 0,9.12342385 0,20.3777388 C0,31.6320537 9.10447685,40.7554775 20.3354195,40.7554775 Z" id="handle" stroke-opacity="0.1" stroke="#000000" fill="#FFFFFF"></path>
                            <polygon id="Shape-4" fill="#F35026" transform="translate(26.835003, 20.335833) rotate(-90.000000) translate(-26.835003, -20.335833) " points="31.8375028 18.4029165 30.6922792 17.133392 26.7846567 21.1721283 23.0217791 17.0008334 21.8325027 18.230014 26.7406039 23.6708334"></polygon>
                            <polygon id="Shape-4-Copy" fill="#F35026" transform="translate(12.833336, 20.333333) rotate(-270.000000) translate(-12.833336, -20.333333) " points="17.8333361 18.4013825 16.6886848 17.1324924 12.7830152 21.1692103 9.02201814 17 7.83333608 18.2285663 12.7389844 23.6666667"></polygon>
                        </g>
                    </g>
                </g>
            </g>
        </g>
    </g>
</svg>