<?xml version="1.0" encoding="UTF-8" standalone="no"?>
<svg width="36px" height="36px" viewBox="0 0 36 36" version="1.1" xmlns="http://www.w3.org/2000/svg" xmlns:xlink="http://www.w3.org/1999/xlink">
    <!-- Generator: Sketch 3.8.3 (29802) - http://www.bohemiancoding.com/sketch -->
    <title>whatsapp</title>
    <desc>Created with Sketch.</desc>
    <defs></defs>
    <g id="Page-1" stroke="none" stroke-width="1" fill="none" fill-rule="evenodd">
        <g id="contact---1280px" transform="translate(-418.000000, -152.000000)">
            <g id="1.-Blok---Contact-Strook" transform="translate(140.000000, 121.000000)">
                <g id="whatsapp" transform="translate(265.000000, 19.000000)">
                    <g transform="translate(13.000000, 12.000000)">
                        <g id="Mail-Copy" fill="#F35026">
                            <path d="M0.134748413,17.6470588 C0.134748413,7.90085687 8.07296459,0 17.8652516,0 C27.6575386,0 35.5957548,7.90085687 35.5957548,17.6470588 C35.5957548,27.3932608 27.6575386,35.2941176 17.8652516,35.2941176 C8.07296459,35.2941176 0.134748413,27.3932608 0.134748413,17.6470588 Z" id="Mail"></path>
                        </g>
                        <g id="balloon-tip" transform="translate(8.664706, 7.764706)" fill="#FFFFFF">
                            <path d="M9.68823529,19.0588235 C14.7562603,19.0588235 18.8647059,14.7923608 18.8647059,9.52941176 C18.8647059,4.26646271 14.7562603,0 9.68823529,0 C4.62021028,0 0.511764706,4.26646271 0.511764706,9.52941176 C0.511764706,14.7923608 4.62021028,19.0588235 9.68823529,19.0588235 Z" id="Oval-1"></path>
                            <polygon id="Triangle-1" points="1.26093205 17.9218706 1.57579433 14.1832899 5.00822393 17.7376747"></polygon>
                        </g>
                        <path d="M16.7150946,13.5933265 L17.4329089,15.5625487 C17.4329089,15.5625487 17.506762,16.1220313 16.7880154,16.6481839 C16.0692688,17.1743366 19.2938401,20.1070226 19.951474,19.8637144 C20.609108,19.6204062 20.8941621,18.5087966 20.8941621,18.5087966 L22.9391562,19.6432774 C22.9391562,19.6432774 23.0833404,22.0370535 20.9355944,21.8744266 C18.7878484,21.7117997 16.9808827,20.1870144 16.9808827,20.1870144 C16.9808827,20.1870144 13.8651747,17.2909912 14.5760492,14.9813443 C15.2869237,12.6716974 16.7150946,13.5933265 16.7150946,13.5933265 Z" id="phone" fill="#F35026"></path>
                    </g>
                </g>
            </g>
        </g>
    </g>
</svg>